
        <svg xmlns="http://www.w3.org/2000/svg" xmlns:xlink="http://www.w3.org/1999/xlink" version="1.1" width="3200" height="1446.2954225729584" viewBox="0 0 3200 1446.2954225729584">
			
			<g transform="scale(10) translate(10, 10)">
				<defs id="SvgjsDefs9945"/><g id="SvgjsG9946" featureKey="jxYttZ-0" transform="matrix(5.39390835516289,0,0,5.39390835516289,6.463508829524932,-35.068135788449425)" fill="#000"><path d="M-1.08 29.6 c-0.16 -0.06 -0.12 -0.18 -0.08 -0.32 c0.18 -0.5 0.34 -1 0.54 -1.48 c1.08 -2.6 2.18 -5.2 3.26 -7.78 c0.16 -0.4 0.36 -0.74 0.16 -1.22 c-0.2 -0.46 0.12 -0.84 0.52 -1.08 c0.36 -0.22 0.54 -0.54 0.7 -0.92 c0.98 -2.24 2.08 -4.42 2.8 -6.78 c0 -0.04 0.02 -0.06 0.04 -0.1 c0.12 -0.16 0.1 -0.56 0.38 -0.46 c0.2 0.08 0.02 0.42 -0.04 0.64 c-0.42 1.38 -1.02 2.72 -1.58 4.06 c-0.32 0.76 -0.66 1.52 -1 2.28 c-0.06 0.12 -0.16 0.24 -0.04 0.36 s0.24 -0.02 0.34 -0.08 c2.8 -1.62 5.54 -3.32 7.48 -6 c0.44 -0.58 0.8 -1.22 0.78 -1.84 c0.02 -1.02 -0.48 -1.56 -1.4 -1.82 c-1.04 -0.3 -2.04 -0.16 -3.04 0.12 c-1.66 0.46 -3.14 1.3 -4.42 2.4 c-2.42 2.1 -4.48 4.46 -5.22 7.7 c-0.02 0.12 0.1 0.4 -0.16 0.36 c-0.18 -0.02 -0.14 -0.24 -0.12 -0.4 c0.34 -1.88 1.2 -3.52 2.36 -4.98 c1.96 -2.42 4.22 -4.44 7.26 -5.4 c1.18 -0.36 2.38 -0.52 3.6 -0.14 c1.32 0.42 1.88 1.46 1.44 2.78 c-0.3 0.94 -0.9 1.7 -1.54 2.42 c-1.96 2.2 -4.38 3.74 -6.92 5.18 c-0.54 0.3 -1.04 0.64 -1.3 1.28 c-0.24 0.56 -0.24 0.86 0.32 1.22 c2.32 1.38 4.68 2.62 7.38 3.1 c0.12 0.02 0.38 -0.08 0.36 0.16 c0 0.22 -0.24 0.18 -0.4 0.16 c-0.92 -0.14 -1.82 -0.34 -2.68 -0.68 c-1.64 -0.66 -3.22 -1.4 -4.72 -2.34 c-0.74 -0.46 -0.74 -0.46 -1.08 0.36 c-1.24 2.88 -2.5 5.76 -3.62 8.7 c-0.04 0.12 -0.1 0.24 -0.16 0.36 c-0.04 0.08 -0.06 0.22 -0.2 0.18 z M3.22 18.5 l0.02 -0.06 l-0.04 0 z M12.54 20.26 c-0.74 0.2 -1.52 -0.24 -1.68 -0.96 c-0.32 -1.36 0.66 -3.12 1.96 -3.56 c1.2 -0.42 2.16 0.26 2.16 1.52 l0 0.5 c0 0.44 1.16 -0.4 2.24 -0.86 c0.66 -0.3 1.42 -0.56 2.12 -0.72 c0.1 -0.02 0.3 -0.06 0.3 0.14 c0 0.14 -0.12 0.14 -0.22 0.16 c-1.56 0.38 -2.82 1.14 -4.26 1.78 c-0.4 0.18 -0.66 0.4 -0.9 0.72 c-0.44 0.58 -0.96 1.1 -1.72 1.28 z M13.799999999999999 18.14 c0.48 0.12 0.82 -0.32 0.84 -1.14 c0.02 -0.24 -0.04 -0.56 -0.3 -0.74 c-0.32 -0.24 -0.4 0.28 -0.72 0.32 c-0.44 0.06 -0.56 0.52 -0.52 0.94 c0.04 0.38 0.36 0.54 0.7 0.62 z M12.26 19.86 c0.64 0 1.08 -0.4 1.48 -0.86 c0.16 -0.16 0.2 -0.34 -0.06 -0.44 c-1.04 -0.4 -1.28 -1.06 -0.74 -2.02 c0.04 -0.08 0.12 -0.2 0 -0.26 c-0.06 -0.04 -0.18 0 -0.26 0.04 c-0.76 0.32 -1.56 1.68 -1.48 2.5 c0.06 0.7 0.4 1.04 1.06 1.04 z M18.54 19.74 c-0.42 -0.36 -0.28 -0.82 -0.18 -1.3 c0.2 -0.82 0.7 -1.5 1.1 -2.22 c0.1 -0.16 0.24 -0.38 0.46 -0.22 c0.16 0.12 0 0.32 -0.06 0.44 c-0.16 0.26 -0.34 0.5 -0.5 0.76 c-0.18 0.36 -0.38 0.7 -0.52 1.08 c-0.16 0.4 -0.32 0.94 0.04 1.2 c0.38 0.24 0.8 -0.18 1.12 -0.44 c0.1 -0.08 0.18 -0.2 0.3 -0.28 c0.2 -0.18 0.36 -0.6 0.64 -0.46 c0.36 0.14 -0.02 0.44 -0.02 0.7 c0.02 0.56 0.2 0.7 0.74 0.42 c0.76 -0.4 1.26 -1.08 1.72 -1.76 c0.16 -0.28 0.02 -0.44 -0.16 -0.6 c-0.5 -0.44 -0.48 -1 -0.42 -1.58 c0.08 -0.56 0.46 -0.9 1.02 -0.9 c0.58 0.02 0.72 0.4 0.76 1.02 c-0.02 0.24 -0.16 0.88 -0.36 1.26 c-0.06 0.28 0.06 0.44 0.76 0.26 c0.92 -0.24 1.7 -0.44 2.56 -0.86 c0.28 -0.18 0.48 -0.16 0.54 -0.02 c0.08 0.24 -0.24 0.26 -0.4 0.34 c-1.14 0.5 -2.12 1 -3.46 0.92 c-0.34 -0.02 -0.46 0.2 -0.6 0.42 c-0.34 0.54 -0.76 1.02 -1.24 1.44 c-0.74 0.66 -1.04 0.7 -1.86 0.12 c-0.32 -0.24 -0.48 0 -0.7 0.1 c-0.4 0.2 -0.82 0.54 -1.28 0.16 z M23.64 16.84 c0.48 0.06 0.88 -1.96 0.08 -1.86 c-0.42 0.06 -0.62 0.44 -0.6 0.9 c0.02 0.42 0.12 0.9 0.52 0.96 z M29.86 21.74 c-1.34 0.46 -2.1 -0.08 -2.04 -1.46 c0.04 -1.14 0.62 -2.06 1.42 -2.78 c0.9 -0.8 1.4 -1.56 1.08 -2.88 c-0.3 -1.24 -0.14 -2.52 1.02 -3.44 c0.86 -0.7 1.84 -0.82 2.54 -0.24 c0.68 0.58 0.72 1.58 0.12 2.54 c-0.6 0.94 -1.54 1.54 -2.36 2.26 c-0.44 0.38 -0.56 0.68 -0.28 1.18 c0.38 0.7 0.66 1.74 1.34 1.86 c0.52 0.08 0.86 -1.02 1.28 -1.6 c0.24 -0.36 0.46 -0.74 0.68 -1.1 c0.08 -0.1 0.16 -0.3 0.28 -0.24 c0.18 0.1 0.1 0.3 0.02 0.44 c-0.52 0.82 -1.02 1.64 -1.58 2.42 c-0.36 0.5 -0.46 0.92 0.04 1.38 c0.24 0.22 0.42 0.52 0.62 0.78 c0.1 0.16 0.34 0.32 0.14 0.5 c-0.12 0.1 -0.28 -0.12 -0.4 -0.24 l-0.12 -0.14 c-0.36 -0.38 -0.56 -1.14 -1.06 -1.1 c-0.42 0.02 -0.8 0.64 -1.2 0.96 c-0.48 0.36 -0.98 0.7 -1.54 0.9 z M30.92 15.58 c0.3 0.16 0.54 -0.28 0.78 -0.48 c0.38 -0.26 0.72 -0.58 1.06 -0.9 c0.5 -0.48 1.02 -0.96 1.18 -1.68 c0.1 -0.48 0.02 -0.86 -0.32 -1.18 c-0.36 -0.32 -0.74 -0.46 -1.26 -0.28 c-1.12 0.4 -1.74 1.38 -1.74 2.82 c0 0.26 -0.02 0.54 0.02 0.8 c0.04 0.32 0.08 0.8 0.28 0.9 z M29.580000000000002 21.4 c0.68 -0.22 1.26 -0.58 1.8 -1.04 c1.06 -0.94 1.06 -0.94 0.28 -2.12 c-0.12 -0.18 -0.24 -0.34 -0.34 -0.5 c-0.68 -1.18 -0.68 -1.2 -1.58 -0.2 c-0.74 0.82 -1.42 1.68 -1.52 2.62 c-0.02 1.18 0.46 1.52 1.36 1.24 z M39.72 22.9 c-3.02 0.86 -4.46 -0.9 -4 -3.44 c0.82 -4.44 3.42 -7.72 7.16 -10.1 c0.88 -0.56 1.88 -0.86 2.92 -0.8 c1.96 -0.26 2.62 1.28 1.94 2.84 c-0.66 1.54 -1.74 2.72 -3.34 3.34 c-0.16 0.06 -0.32 0.12 -0.48 0.14 c-0.22 0.02 -0.26 -0.16 -0.26 -0.34 c0.02 -0.16 0.1 -0.18 0.26 -0.2 c1.7 -0.18 3.68 -2.32 3.74 -4 c0.02 -0.78 -0.54 -1.4 -1.36 -1.44 c-1.34 -0.08 -2.56 0.34 -3.64 1.08 c-3.16 2.16 -5.34 5.04 -6.38 8.74 c-0.22 0.82 -0.24 1.64 -0.08 2.46 c0.26 1.26 1.6 1.9 3.1 1.48 c1.8 -0.5 3.3 -1.5 4.68 -2.74 c0.16 -0.16 0.32 -0.34 0.5 -0.5 c0.1 -0.1 0.24 -0.32 0.38 -0.2 c0.22 0.2 -0.04 0.36 -0.18 0.46 c-1.48 1.32 -2.98 2.66 -4.96 3.22 z M47.32 20.26 c-0.74 0.2 -1.52 -0.24 -1.68 -0.96 c-0.32 -1.36 0.66 -3.12 1.96 -3.56 c1.2 -0.42 2.16 0.26 2.16 1.52 l0 0.5 c0 0.44 1.16 -0.4 2.24 -0.86 c0.66 -0.3 1.42 -0.56 2.12 -0.72 c0.1 -0.02 0.3 -0.06 0.3 0.14 c0 0.14 -0.12 0.14 -0.22 0.16 c-1.56 0.38 -2.82 1.14 -4.26 1.78 c-0.4 0.18 -0.66 0.4 -0.9 0.72 c-0.44 0.58 -0.96 1.1 -1.72 1.28 z M48.58 18.14 c0.48 0.12 0.82 -0.32 0.84 -1.14 c0.02 -0.24 -0.04 -0.56 -0.3 -0.74 c-0.32 -0.24 -0.4 0.28 -0.72 0.32 c-0.44 0.06 -0.56 0.52 -0.52 0.94 c0.04 0.38 0.36 0.54 0.7 0.62 z M47.04 19.86 c0.64 0 1.08 -0.4 1.48 -0.86 c0.16 -0.16 0.2 -0.34 -0.06 -0.44 c-1.04 -0.4 -1.28 -1.06 -0.74 -2.02 c0.04 -0.08 0.12 -0.2 0 -0.26 c-0.06 -0.04 -0.18 0 -0.26 0.04 c-0.76 0.32 -1.56 1.68 -1.48 2.5 c0.06 0.7 0.4 1.04 1.06 1.04 z"/></g>
			</g>
		</svg>
	