<?xml version="1.0" encoding="UTF-8"?>
<svg version="1.1" xmlns="http://www.w3.org/2000/svg" width="1650" height="267">
<path d="M0 0 C1.46280144 -0.00639748 1.46280144 -0.00639748 2.95515442 -0.01292419 C4.03444717 -0.01247101 5.11373993 -0.01201782 6.22573853 -0.0115509 C7.35603989 -0.01490952 8.48634125 -0.01826813 9.65089417 -0.02172852 C13.41755249 -0.03128537 17.18416646 -0.03318505 20.95083618 -0.03425598 C23.5718996 -0.03746908 26.19296284 -0.0408332 28.81402588 -0.04434204 C34.33066088 -0.05075231 39.84728389 -0.05222359 45.36392212 -0.05158997 C51.694376 -0.05099402 58.02474332 -0.06144412 64.35517538 -0.07733363 C70.47562834 -0.09213723 76.59604087 -0.09557365 82.71651077 -0.09498024 C85.30210342 -0.09615096 87.88769688 -0.10052094 90.47327805 -0.10831261 C108.50670852 -0.15749828 126.56930431 -0.07990113 144.17739868 4.32121277 C145.47846558 4.64158508 145.47846558 4.64158508 146.80581665 4.96842957 C165.48580961 9.81094566 182.97483901 19.14827088 193.30239868 36.00871277 C197.58325464 43.75130874 199.79246857 51.34609341 200.48989868 60.13371277 C200.56917603 61.09084167 200.56917603 61.09084167 200.65005493 62.06730652 C201.2939815 76.87761766 196.86248174 91.2701046 187.11489868 102.44621277 C185.59073978 104.02579563 184.05007976 105.58969937 182.48989868 107.13371277 C181.60237915 108.07150574 181.60237915 108.07150574 180.69692993 109.02824402 C169.47502151 120.00242819 153.43521573 124.2347153 138.48989868 127.13371277 C139.58044556 127.28066589 140.67099243 127.42761902 141.79458618 127.57902527 C162.68327784 130.59820361 185.1335348 136.85768272 198.82974243 154.07511902 C209.68499319 168.6444695 213.00834492 185.15003553 210.6444397 203.02311707 C208.86598722 214.19138291 204.42023491 223.27197136 197.48989868 232.13371277 C196.76802368 233.14433777 196.04614868 234.15496277 195.30239868 235.19621277 C178.45395685 254.49831117 149.7404192 260.13568154 125.48989868 262.13371277 C115.90554526 262.58654873 106.30855554 262.49743085 96.71632385 262.43755341 C93.46043946 262.42012571 90.20456419 262.41964587 86.94863892 262.41752625 C81.23953114 262.41135613 75.53055577 262.39276729 69.82150269 262.3674469 C60.5683933 262.32661324 51.31526251 262.29778229 42.06210327 262.27131653 C41.33495386 262.26923496 40.60780445 262.2671534 39.85862021 262.26500876 C36.15696954 262.25443877 32.45531862 262.24395677 28.75366759 262.23351347 C22.24927017 262.21512197 15.74487496 262.19597734 9.24047962 262.17686723 C6.09497598 262.16763177 2.9494722 262.15844317 -0.19603157 262.14925098 C-1.96738815 262.14407158 -3.73874474 262.13889217 -5.51010132 262.13371277 C-5.53296678 228.90087842 -5.55059908 195.66804602 -5.56116665 162.43520555 C-5.56241742 158.51594167 -5.56371174 154.5966778 -5.56503296 150.67741394 C-5.56529527 149.8971258 -5.56555758 149.11683765 -5.56582784 148.31290441 C-5.57018471 135.66181856 -5.57807235 123.01073724 -5.58725411 110.35965408 C-5.59659017 97.38823719 -5.60215683 84.41682267 -5.60418981 71.44540256 C-5.60556514 63.43483586 -5.60991625 55.42428194 -5.61801779 47.41371917 C-5.62390531 41.28167605 -5.6245604 35.14964276 -5.623209 29.0175972 C-5.62348553 26.49436425 -5.62549335 23.97113085 -5.62930679 21.44790077 C-5.63423691 18.01942777 -5.63310214 14.59101075 -5.63035583 11.16253662 C-5.63326868 10.14991196 -5.63618152 9.13728729 -5.63918263 8.09397703 C-5.63719158 7.18281974 -5.63520053 6.27166245 -5.63314915 5.33289433 C-5.63352887 4.540418 -5.63390859 3.74794167 -5.63429981 2.9314509 C-5.38302918 -0.70562052 -3.10704572 0.00611179 0 0 Z M55.48989868 30.13371277 C55.48989868 57.52371277 55.48989868 84.91371277 55.48989868 113.13371277 C62.25489868 113.19558777 69.01989868 113.25746277 75.98989868 113.32121277 C79.1387561 113.36218079 79.1387561 113.36218079 82.35122681 113.40397644 C99.27600653 113.53291237 117.10675896 112.86618437 130.42739868 100.94621277 C139.79002215 90.6679293 140.1768091 77.59078814 139.66470337 64.49406433 C138.96508559 55.04727002 135.37648487 46.66409622 128.48989868 40.13371277 C116.9860692 31.20155848 103.15873016 29.95684988 89.08364868 30.03605652 C88.22674438 30.0370636 87.36984009 30.03807068 86.48696899 30.03910828 C83.32126505 30.04429474 80.15558036 30.05825558 76.98989868 30.07121277 C69.89489868 30.09183777 62.79989868 30.11246277 55.48989868 30.13371277 Z M55.48989868 142.13371277 C55.48989868 171.83371277 55.48989868 201.53371277 55.48989868 232.13371277 C68.14333618 232.22652527 68.14333618 232.22652527 81.05239868 232.32121277 C83.68281128 232.34852478 86.31322388 232.37583679 89.02334595 232.40397644 C107.31804849 232.516071 126.64971932 232.3534153 140.96255493 219.02043152 C150.12236694 207.70536963 151.55080109 194.1145158 150.48989868 180.13371277 C148.96676453 169.16458696 144.46047641 159.68046094 135.73989868 152.66105652 C113.10476354 137.29588666 80.07936649 142.13371277 55.48989868 142.13371277 Z " fill="#f4e7d7" transform="translate(5.510101318359375,1.8662872314453125)"/>
<path d="M0 0 C5.79831185 -0.07467117 11.59633806 -0.12884674 17.39501953 -0.16479492 C19.36381919 -0.17979561 21.33258593 -0.20020283 23.30126953 -0.22631836 C26.14624198 -0.26308815 28.99076913 -0.27981387 31.8359375 -0.29296875 C32.70302338 -0.30845261 33.57010925 -0.32393646 34.46347046 -0.33988953 C45.89859684 -0.34297377 55.28728839 3.49334066 63.6875 11.1875 C69.72192078 17.61387441 72.66429268 26.27561623 75.65234375 34.4375 C75.98469025 35.33031174 76.31703674 36.22312347 76.65945435 37.14299011 C77.37904744 39.07762452 78.09617432 41.01317771 78.81106567 42.94955444 C80.78686619 48.30012994 82.78184034 53.64357024 84.7734375 58.98828125 C85.40485405 60.68516838 85.40485405 60.68516838 86.04902649 62.41633606 C90.99434281 75.6958214 96.02875023 88.9413452 101.0625 102.1875 C102.91049133 107.05325821 104.75801946 111.91919222 106.60546875 116.78515625 C107.28135796 118.56511993 107.28135796 118.56511993 107.97090149 120.38104248 C112.61875263 132.62406041 117.24905357 144.87369147 121.875 157.125 C122.24424591 158.10286469 122.61349182 159.08072937 122.993927 160.08822632 C124.99651354 165.39193879 126.99854451 170.6958606 129 176 C134.23219407 162.7881804 139.15376635 149.47460971 143.98809814 136.11260986 C145.7360875 131.28156465 147.48892267 126.45228185 149.2414856 121.62289429 C150.15044975 119.11810832 151.05923854 116.61325956 151.96774292 114.10830688 C156.50249736 101.6074134 161.05966918 89.11475521 165.625 76.625 C166.00964417 75.57268188 166.39428833 74.52036377 166.79058838 73.43615723 C169.52497221 65.95667395 172.26180899 58.47809026 175 51 C175.41862305 49.85668213 175.83724609 48.71336426 176.26855469 47.53540039 C178.81494197 40.5818413 181.3631867 33.62896667 183.91375732 26.67694092 C184.71624765 24.48929042 185.51837629 22.30150721 186.32012939 20.11358643 C187.42319164 17.10394089 188.52777318 14.09485758 189.6328125 11.0859375 C190.12509338 9.74157623 190.12509338 9.74157623 190.62731934 8.37005615 C191.07694031 7.14733002 191.07694031 7.14733002 191.53564453 5.89990234 C191.79588409 5.19070648 192.05612366 4.48151062 192.32424927 3.75082397 C193 2 193 2 194 0 C204.56 0 215.12 0 226 0 C222.62512803 11.24957323 222.62512803 11.24957323 220.609375 16.60205078 C220.15510132 17.8132962 219.70082764 19.02454163 219.23278809 20.27249146 C218.73857919 21.58011881 218.2443147 22.88772514 217.75 24.1953125 C217.22321431 25.59631395 216.69673358 26.9974301 216.17053223 28.39865112 C215.04244126 31.40076908 213.91230354 34.40210514 212.78051758 37.40283203 C210.96692144 42.21132831 209.1579233 47.02154645 207.34960938 51.83203125 C205.14058681 57.70763921 202.93053144 63.58285651 200.71910858 69.45756149 C196.85750071 79.71636238 193.00397401 89.97817171 189.15625 100.2421875 C188.74238069 101.34619872 188.74238069 101.34619872 188.32015038 102.4725132 C187.2097035 105.43478767 186.09932329 108.39708712 184.98904705 111.35942554 C183.0464434 116.54249666 181.10315674 121.72531126 179.15942383 126.90795898 C178.88279687 127.64554412 178.60616991 128.38312925 178.32116032 129.14306545 C177.76125941 130.63595363 177.20135754 132.12884145 176.6414547 133.6217289 C171.9919077 146.01917412 167.34422541 158.41731717 162.69783211 170.81594467 C160.02806064 177.9399236 157.35790946 185.0637602 154.6875 192.1875 C154.40191097 192.94935608 154.11632195 193.71121216 153.8220787 194.49615479 C145.25606959 217.34645948 136.66675999 240.18767796 128 263 C120.41 263 112.82 263 105 263 C100.50012476 254.00024951 100.50012476 254.00024951 99.17588806 250.65788269 C98.87082211 249.89303621 98.56575615 249.12818974 98.25144577 248.34016609 C97.9312006 247.52690298 97.61095543 246.71363987 97.28100586 245.87573242 C96.92919376 244.99082563 96.57738167 244.10591885 96.2149086 243.1941967 C95.04495825 240.24923721 93.87997355 237.30233837 92.71484375 234.35546875 C91.87432951 232.23768486 91.03344368 230.12004841 90.19221497 228.00254822 C88.38482763 223.45157612 86.57939709 218.89983485 84.7755127 214.34747314 C80.186343 202.76706109 75.58518135 191.19141131 70.9831996 179.61608601 C70.22688594 177.71364399 69.47069921 175.81115155 68.71452713 173.90865326 C56.14572502 142.28857555 43.44847049 110.72030591 30.73564053 79.15788174 C14.98962412 40.06294301 14.98962412 40.06294301 7.26880646 20.58434677 C6.60635893 18.9138947 5.94282114 17.24387453 5.27812958 15.57431412 C4.37762913 13.31113627 3.4815682 11.04625582 2.58691406 8.78076172 C2.32160133 8.11606747 2.0562886 7.45137321 1.7829361 6.76653671 C0 2.22919475 0 2.22919475 0 0 Z " fill="#f4e7d7" transform="translate(216,2)"/>
<path d="M0 0 C10.56 0 21.12 0 32 0 C28.62459818 11.25133941 28.62459818 11.25133941 26.68530273 16.46606445 C26.24785736 17.64684067 25.81041199 18.82761688 25.35971069 20.04417419 C24.88442563 21.31724246 24.40905042 22.59027707 23.93359375 23.86328125 C23.42656988 25.22765888 22.91979168 26.59212783 22.41323853 27.9566803 C21.04499024 31.6396404 19.67256451 35.32103049 18.29915237 39.00206757 C17.4300072 41.33259119 16.56207393 43.66356253 15.69454956 45.99468994 C6.14664393 71.65059325 -3.48276952 97.27553666 -13.14990234 122.88671875 C-14.23016518 125.74868963 -15.31041074 128.61066703 -16.390625 131.47265625 C-16.65848942 132.1823267 -16.92635384 132.89199715 -17.20233536 133.62317276 C-23.59767139 150.56861969 -29.95874149 167.5268927 -36.31573105 184.48675537 C-37.18124266 186.79580639 -38.04685789 189.10481854 -38.9125061 191.41381836 C-43.89034804 204.69170457 -48.86673843 217.97013257 -53.83705139 231.25083923 C-55.27823922 235.10151386 -56.72009475 238.95193829 -58.16201782 242.80233765 C-59.09349609 245.29083549 -60.02372943 247.77979605 -60.95385742 250.26879883 C-61.49261785 251.70786674 -62.03143191 253.14691458 -62.5703125 254.5859375 C-63.02164551 255.7929834 -63.47297852 257.0000293 -63.93798828 258.24365234 C-65 261 -65 261 -66 263 C-73.59 263 -81.18 263 -89 263 C-92.30506848 255.83751422 -95.42283079 248.64729686 -98.32446289 241.31323242 C-98.72532104 240.30642929 -99.1261792 239.29962616 -99.53918457 238.26231384 C-100.85287352 234.9610325 -102.16277275 231.65826165 -103.47265625 228.35546875 C-104.40058932 226.02157562 -105.32877093 223.68778129 -106.25718689 221.3540802 C-108.45110416 215.83774136 -110.64267802 210.32047547 -112.83304447 204.80272609 C-116.00079651 196.82321922 -119.17245417 188.84526446 -122.34488487 180.86761665 C-124.69089591 174.96761895 -127.0346954 169.06676542 -129.37319946 163.16378784 C-133.22549214 153.44544401 -137.0868912 143.73359152 -141.08154297 134.07275391 C-141.66690515 132.64813937 -142.25207452 131.2234456 -142.83702087 129.79866028 C-143.85508701 127.31941208 -144.89045256 124.85036456 -145.93849182 122.38334656 C-146.36927536 121.33556534 -146.8000589 120.28778412 -147.24389648 119.20825195 C-147.79641335 117.89701103 -147.79641335 117.89701103 -148.36009216 116.5592804 C-149.50793598 111.96853464 -148.0994828 107.8515398 -146.48461914 103.5246582 C-146.17630157 102.69044846 -145.86798401 101.85623871 -145.55032349 100.99674988 C-145.2153183 100.10708023 -144.88031311 99.21741058 -144.53515625 98.30078125 C-144.01113724 96.8895977 -144.01113724 96.8895977 -143.47653198 95.4499054 C-142.34352873 92.40221216 -141.20307775 89.35736564 -140.0625 86.3125 C-139.28602313 84.22789417 -138.51006405 82.1430954 -137.73461914 80.05810547 C-136.20103715 75.93667555 -134.66476852 71.81626482 -133.12597656 67.69677734 C-130.3807241 60.34533597 -127.65854054 52.98542749 -124.9375 45.625 C-124.15516975 43.51293865 -123.37264597 41.40094897 -122.58984375 39.2890625 C-122.27909912 38.45068848 -121.96835449 37.61231445 -121.64819336 36.74853516 C-121.43428955 36.17151855 -121.22038574 35.59450195 -121 35 C-120.01 35 -119.02 35 -118 35 C-117.72140137 35.75651855 -117.44280273 36.51303711 -117.15576172 37.29248047 C-109.19494978 58.8795647 -101.07033865 80.40276268 -92.89782715 101.91052246 C-83.52503755 126.57953689 -74.24132403 151.28144914 -65 176 C-61.46262802 167.7098435 -58.21804961 159.34852776 -55.1484375 150.875 C-54.4556973 148.97361128 -53.76295699 147.0722226 -53.07021236 145.17083549 C-52.33915835 143.16263263 -51.60947412 141.15393715 -50.88021851 139.14508057 C-49.34914546 134.92756375 -47.81415477 130.7114793 -46.27856445 126.49560547 C-44.44301311 121.45547491 -42.60828065 116.41504803 -40.77479267 111.37416649 C-36.25710237 98.95360991 -31.72404352 86.53868179 -27.1875 74.125 C-26.80868683 73.08807007 -26.42987366 72.05114014 -26.0395813 70.98278809 C-17.39134806 47.3102443 -8.69877277 23.65401055 0 0 Z " fill="#f4e7d7" transform="translate(572,2)"/>
<path d="M0 0 C13.95685258 -0.68828314 13.95685258 -0.68828314 17.6875 1.6875 C21.97802041 5.97802041 24.07181527 11.24771899 26.37109375 16.78125 C26.68990005 17.54005463 27.00870636 18.29885925 27.33717346 19.08065796 C28.37437742 21.5522148 29.40603425 24.02604358 30.4375 26.5 C31.15142491 28.20470202 31.86561975 29.90929102 32.58007812 31.61376953 C38.76776112 46.3893176 44.9020597 61.18720377 51 76 C53.91179803 69.35440468 56.80546818 62.70119866 59.68261719 56.04052734 C60.8653697 53.31072754 62.06069735 50.58679933 63.2578125 47.86328125 C63.90201374 46.36760581 64.54530872 44.87153955 65.1875 43.375 C65.64201538 42.35708374 65.64201538 42.35708374 66.10571289 41.31860352 C68.38054453 35.94092066 67.81745612 33.15146829 65.78491211 27.80200195 C65.28741455 26.62597412 64.78991699 25.44994629 64.27734375 24.23828125 C64.01240616 23.60641403 63.74746857 22.97454681 63.47450256 22.3235321 C62.63321551 20.31797757 61.78595658 18.31503092 60.9375 16.3125 C60.08587102 14.29910014 59.23564909 12.28516225 58.38978577 10.26933289 C57.62538463 8.44796583 56.85566732 6.62883263 56.08569336 4.80981445 C55 2 55 2 55 0 C67.30139624 -0.6066442 67.30139624 -0.6066442 72.5 1.25 C80.3430782 9.87738602 84.03556754 23.16108463 88.3125 33.875 C88.97354983 35.51943549 89.63517528 37.16363969 90.29736328 38.80761719 C91.60120432 42.04571733 92.90297255 45.28463524 94.20263672 48.52441406 C96.57667257 54.4397816 98.96977835 60.34723777 101.375 66.25 C101.73762939 67.14702637 102.10025879 68.04405273 102.47387695 68.96826172 C103.78732856 72.75914863 103.78732856 72.75914863 106 76 C106.70793701 74.30532593 106.70793701 74.30532593 107.43017578 72.57641602 C117.55056529 48.35451135 127.71406194 24.15210615 138 0 C141.3 0 144.6 0 148 0 C144.04444391 10.88175068 139.7201875 21.55827316 135.13809204 32.19024658 C128.21713197 48.25897017 121.51510747 64.40675296 114.99829102 80.64331055 C111.44811338 89.4816453 107.79616998 98.26405844 104 107 C102.35 107 100.7 107 99 107 C95.63198492 99.70802119 92.43731135 92.36513896 89.390625 84.93359375 C88.97834656 83.93288345 88.56606812 82.93217316 88.14129639 81.90113831 C86.84231571 78.74736281 85.54600586 75.59249898 84.25 72.4375 C82.93926788 69.25055121 81.62796561 66.06383896 80.31585693 62.87745667 C79.50363678 60.90463163 78.69228748 58.93144779 77.88189697 56.95787048 C77.51771667 56.07257156 77.15353638 55.18727264 76.77832031 54.27514648 C76.45808899 53.4955809 76.13785767 52.71601532 75.80792236 51.91282654 C75.24889161 50.58927255 74.64254347 49.28508693 74 48 C71.72498659 53.34852863 69.45043599 58.69725378 67.17626953 64.04614258 C66.40653239 65.8564148 65.63668019 67.66663811 64.86669922 69.47680664 C59.55121121 81.97341473 54.26120782 94.48043991 49 107 C47.35 107 45.7 107 44 107 C34.79951104 85.26902195 25.70326539 63.49922679 16.77258301 41.65592957 C16.45059937 40.86841812 16.12861572 40.08090668 15.796875 39.26953125 C15.32018372 38.10343071 15.32018372 38.10343071 14.8338623 36.91377258 C12.67973318 31.64871761 10.50968283 26.39046459 8.328125 21.13671875 C8.04209412 20.4476091 7.75606323 19.75849945 7.46136475 19.04850769 C6.12740342 15.83592037 4.7912247 12.62427684 3.45214844 9.41381836 C2.99356445 8.31046143 2.53498047 7.20710449 2.0625 6.0703125 C1.46115234 4.62809326 1.46115234 4.62809326 0.84765625 3.15673828 C0 1 0 1 0 0 Z " fill="#f4e7d7" transform="translate(683,158)"/>
<path d="M0 0 C47.4 0 47.4 0 57 8 C61.91874921 13.61946487 64.49303098 19.29977845 64.24609375 26.92578125 C63.41947543 33.89299283 60.12705221 39.30119345 55 44 C51.7667273 46.32713258 49.09044236 48 45 48 C45 48.66 45 49.32 45 50 C46.670625 50.061875 46.670625 50.061875 48.375 50.125 C55.14550415 50.97882912 61.41773299 54.87318275 65.9375 59.9375 C71.26333616 67.84555976 72.10391532 74.46811578 71 84 C68.83606363 91.39344927 64.43671896 96.84625525 58 101 C38.92950902 110.64801449 23.53648829 107 0 107 C0 71.69 0 36.38 0 0 Z M18 8 C18 20.54 18 33.08 18 46 C30.37967925 46.80305874 30.37967925 46.80305874 39.828125 41.52734375 C44.03282456 36.82593518 45.84885157 32.33878743 46 26 C45.35940411 20.56294241 43.83666221 16.30264869 39.8125 12.5 C32.98367847 7.44267192 26.52923303 8 18 8 Z M18 55 C18 69.19 18 83.38 18 98 C33.80784714 98.94885911 33.80784714 98.94885911 46.0546875 92.05859375 C51.42488103 86.20314176 52.37428374 81.96874747 52.26953125 74.07421875 C51.79379628 68.64808216 50.10643172 65.00783279 46.1640625 61.25 C37.13003789 54.05047081 30.28404937 55 18 55 Z " fill="#f4e7d7" transform="translate(691,2)"/>
<path d="M0 0 C5.68842661 -0.10025698 11.37631844 -0.17211097 17.06542969 -0.21972656 C18.9932554 -0.23961428 20.92102267 -0.26673439 22.84863281 -0.30175781 C42.67880184 -0.65255165 61.9599256 1.48128972 77.03515625 15.875 C89.12590029 28.95127188 90.7884009 44.44423326 90.18359375 61.49072266 C89.79864655 66.75200904 88.25914515 71.27499053 86 76 C85.62617187 76.804375 85.25234375 77.60875 84.8671875 78.4375 C78.80589601 90.31923697 68.91226748 98.53206326 56.5 103.375 C45.02730598 106.95139443 33.82222062 107.29284513 21.91430664 107.20581055 C19.27936367 107.1872668 16.64476779 107.18530337 14.00976562 107.18554688 C12.33593443 107.1806408 10.66210562 107.1748165 8.98828125 107.16796875 C8.19988358 107.16685593 7.4114859 107.1657431 6.59919739 107.16459656 C1.11614504 107.11614504 1.11614504 107.11614504 0 106 C-0.0953919 104.62123975 -0.12188622 103.23763084 -0.12025452 101.85557556 C-0.12162918 100.96230057 -0.12300385 100.06902557 -0.12442017 99.14868164 C-0.12082489 98.16109863 -0.11722961 97.17351562 -0.11352539 96.15600586 C-0.11367142 95.12198135 -0.11381744 94.08795685 -0.1139679 93.02259827 C-0.11326827 89.58665914 -0.10547358 86.15077347 -0.09765625 82.71484375 C-0.09579225 80.33972707 -0.09436826 77.96461 -0.09336853 75.5894928 C-0.08954197 69.32423856 -0.0797105 63.05900733 -0.06866455 56.79376221 C-0.0584534 50.4061311 -0.05387155 44.01849629 -0.04882812 37.63085938 C-0.03808836 25.08722974 -0.02120127 12.54361609 0 0 Z M18 8 C18 37.7 18 67.4 18 98 C41.78645724 98.35179284 41.78645724 98.35179284 59.6484375 86.41015625 C69.85039176 75.40551016 71.60539964 62.36149864 71.30859375 47.99609375 C70.74421855 35.5728139 65.75766062 25.28358118 56.8125 16.6875 C45.33405361 7.54629382 32.16484821 8 18 8 Z " fill="#f4e7d7" transform="translate(1234,2)"/>
<path d="M0 0 C12.12724991 8.87401293 20.41807179 21.05284418 23.3359375 35.84765625 C25.45701418 51.03009983 22.88049784 65.00593146 14.78125 78.03515625 C4.54654869 91.45398685 -8.48338025 99.52192843 -25.21875 102.03515625 C-39.96409383 103.32427014 -54.69848351 99.93464182 -66.390625 90.5859375 C-78.91378064 79.96473975 -86.090032 66.61677935 -87.45703125 50.16796875 C-87.8672697 33.5425156 -83.01648553 18.98217732 -71.53125 6.72265625 C-51.85768998 -11.7361207 -22.85374231 -14.46789332 0 0 Z M-58.21875 11.03515625 C-63.53218903 19.27832829 -67.5420881 28.1709294 -68.21875 38.03515625 C-68.28707031 38.90140625 -68.35539062 39.76765625 -68.42578125 40.66015625 C-69.00874922 55.51504387 -64.05648136 70.10675164 -55.046875 81.87109375 C-48.36697279 89.00106029 -40.52914515 93.6045866 -30.65234375 94.09765625 C-21.56783262 93.86434617 -13.72854331 90.45738075 -7.20703125 84.0625 C2.00742013 73.04913187 6.03231981 58.24812969 4.78125 44.03515625 C3.0867036 30.39489663 -2.58114591 15.39074118 -13.32421875 6.2421875 C-28.31353893 -3.79756354 -46.23697574 -3.85460337 -58.21875 11.03515625 Z " fill="#f4e7d7" transform="translate(1423.21875,164.96484375)"/>
<path d="M0 0 C6.18891835 -0.09969757 12.3773579 -0.17185698 18.56689453 -0.21972656 C20.66756343 -0.23970531 22.7681777 -0.26689789 24.86865234 -0.30175781 C52.98269682 -0.75628825 52.98269682 -0.75628825 62.4375 8.125 C68.36503451 13.96662822 72.11825013 19.94525729 72.6875 28.375 C72.31117413 35.74471498 69.10646266 42.46961291 64.25390625 47.984375 C60.19574361 51.63581755 55.60257285 55 50 55 C55.39438392 63.79436534 61.30501886 72.17543319 67.28076172 80.57910156 C70.40744518 84.9818555 73.51877216 89.39529853 76.625 93.8125 C77.22900635 94.66642334 77.8330127 95.52034668 78.45532227 96.40014648 C79.01920654 97.20266846 79.58309082 98.00519043 80.1640625 98.83203125 C80.66373535 99.54077393 81.1634082 100.2495166 81.67822266 100.97973633 C82.95451073 102.93047216 84.00413114 104.89449091 85 107 C68.35459842 107.68510037 68.35459842 107.68510037 62.32788086 102.58496094 C57.89317907 98.18321409 54.36808998 93.52250049 50.9375 88.3125 C49.81373405 86.63589096 48.68868806 84.96013931 47.5625 83.28515625 C46.69431641 81.98989014 46.69431641 81.98989014 45.80859375 80.66845703 C42.17701247 75.31030592 38.41968411 70.03863549 34.66967773 64.76293945 C31.51458631 60.2905801 28.62633451 55.80317411 26 51 C26.85722656 50.90203125 27.71445313 50.8040625 28.59765625 50.703125 C39.82987781 49.23945915 39.82987781 49.23945915 48.3125 42.1875 C51.88761012 35.43451422 52.92790786 29.40722495 51 22 C48.76733163 17.28012451 46.32670326 13.86641846 41.9375 11 C33.89891852 8.26346163 26.87187185 8.55449199 18 8 C18 40.67 18 73.34 18 107 C12.39 107 6.78 107 1 107 C0 106 0 106 -0.12304783 104.22151089 C-0.12166514 103.0503729 -0.12166514 103.0503729 -0.12025452 101.85557556 C-0.12162918 100.96230057 -0.12300385 100.06902557 -0.12442017 99.14868164 C-0.12082489 98.16109863 -0.11722961 97.17351562 -0.11352539 96.15600586 C-0.11367142 95.12198135 -0.11381744 94.08795685 -0.1139679 93.02259827 C-0.11326827 89.58665914 -0.10547358 86.15077347 -0.09765625 82.71484375 C-0.09579225 80.33972707 -0.09436826 77.96461 -0.09336853 75.5894928 C-0.08954197 69.32423856 -0.0797105 63.05900733 -0.06866455 56.79376221 C-0.0584534 50.4061311 -0.05387155 44.01849629 -0.04882812 37.63085938 C-0.03808836 25.08722974 -0.02120127 12.54361609 0 0 Z " fill="#f4e7d7" transform="translate(1252,158)"/>
<path d="M0 0 C52.44618834 0 52.44618834 0 63 9 C68.47176766 14.97559209 71.45548012 20.83220175 72 29 C71.06098094 38.65102918 66.39947759 45.42044452 59.0703125 51.5234375 C56.17131616 53.59102357 53.35019597 54.81347226 50 56 C54.19269048 62.88288096 58.70448427 69.40275937 63.51098633 75.86279297 C68.06389619 82.01445229 72.37818914 88.32023329 76.67236328 94.65429688 C77.1929834 95.42193359 77.71360352 96.18957031 78.25 96.98046875 C78.70890625 97.66004639 79.1678125 98.33962402 79.640625 99.03979492 C80.60710772 100.43345328 81.62356411 101.79302276 82.671875 103.1262207 C84 105 84 105 84 107 C73.83273507 107.41280625 67.51983485 107.26104625 59.5456543 100.49682617 C56.86181722 97.89777308 54.90958797 94.8662531 52.875 91.75 C51.91781098 90.3208475 50.95943618 88.89248863 50 87.46484375 C49.26330078 86.36245361 49.26330078 86.36245361 48.51171875 85.23779297 C46.02393307 81.5551309 43.44840581 77.93559533 40.875 74.3125 C39.87729219 72.90126218 38.87989178 71.48980697 37.8828125 70.078125 C36.45549661 68.05824805 35.02755141 66.03884423 33.59667969 64.02148438 C32.30990806 62.20497475 31.02918996 60.38435317 29.75 58.5625 C28.65945313 57.01755859 28.65945313 57.01755859 27.546875 55.44140625 C26 53 26 53 26 51 C26.86882812 50.90203125 27.73765625 50.8040625 28.6328125 50.703125 C38.69350589 49.46390183 38.69350589 49.46390183 46.42578125 43.2890625 C51.0639966 37.09606511 51.74409319 31.66101579 51 24 C49.26215627 18.09133133 46.0617922 14.37452813 41 11 C32.48223072 8.29152842 32.48223072 8.29152842 17 8 C17 40.67 17 73.34 17 107 C11.39 107 5.78 107 0 107 C0 71.69 0 36.38 0 0 Z " fill="#f4e7d7" transform="translate(1080,158)"/>
<path d="M0 0 C53.95564516 0 53.95564516 0 65 11 C70.84171501 18.60261474 71.92272085 25.49054745 71 35 C68.73355319 42.91598008 63.60807354 48.30567859 57 53 C54.66861552 54.26585227 52.5211986 55.14171963 50 56 C54.23724529 62.95602384 58.80326111 69.54735994 63.65600586 76.08032227 C67.6346431 81.45423369 71.44505176 86.93118041 75.20800781 92.45776367 C75.84367676 93.3913269 75.84367676 93.3913269 76.4921875 94.34375 C76.90178711 94.94703125 77.31138672 95.5503125 77.73339844 96.171875 C79.06162359 98.08894322 80.43910317 99.96460645 81.8203125 101.84375 C84 105 84 105 84 107 C68.54111033 107.8601546 68.54111033 107.8601546 62 103 C56.76710324 97.70432394 52.69243381 91.43006242 48.5 85.3125 C47.0942268 83.27310875 45.68796656 81.23405316 44.28125 79.1953125 C43.57355469 78.16825195 42.86585937 77.14119141 42.13671875 76.08300781 C40.05657335 73.081628 37.95532497 70.09651923 35.84375 67.1171875 C35.19599609 66.20155029 34.54824219 65.28591309 33.88085938 64.3425293 C32.64599108 62.59938383 31.40781172 60.85857831 30.16601562 59.12036133 C29.34133789 57.95283325 29.34133789 57.95283325 28.5 56.76171875 C28.0153125 56.08069092 27.530625 55.39966309 27.03125 54.69799805 C26 53 26 53 26 51 C26.845625 50.92523438 27.69125 50.85046875 28.5625 50.7734375 C36.13321295 49.89592304 41.75912999 48.78169689 47 43 C50.86162861 37.97218155 51.64261213 32.93219863 51.3828125 26.6796875 C50.58961995 21.12733968 48.30227221 16.91985694 44.1875 13.125 C35.77020233 7.51346822 27.14029879 8.59648816 17 8 C17 40.67 17 73.34 17 107 C11.39 107 5.78 107 0 107 C0 71.69 0 36.38 0 0 Z " fill="#f4e7d7" transform="translate(1036,2)"/>
<path d="M0 0 C2.39738568 -0.12213097 4.78849403 -0.21095355 7.1875 -0.28125 C7.86103516 -0.31895508 8.53457031 -0.35666016 9.22851562 -0.39550781 C13.00140545 -0.47832735 14.78255565 -0.15933038 17.85742188 2.09375 C20.10520393 4.61815063 22.06014587 7.2333228 24 10 C25.14801738 11.34942394 26.31360996 12.68418559 27.5 14 C28.056875 14.639375 28.61375 15.27875 29.1875 15.9375 C31.27211164 18.30964429 33.38428644 20.65556065 35.5 23 C40.29907792 28.32334693 45.0407795 33.68863339 49.6796875 39.15234375 C55.73540575 46.27542239 61.92423816 53.23378326 68.29296875 60.078125 C76.94339623 69.41509434 76.94339623 69.41509434 80 74 C80.33 49.58 80.66 25.16 81 0 C83.97 0 86.94 0 90 0 C90 35.31 90 70.62 90 107 C84.40107055 105.88021411 82.66246128 104.01905544 79.125 99.9375 C78.32739258 99.04405884 78.32739258 99.04405884 77.51367188 98.13256836 C75.99847392 96.43074575 74.49797116 94.71697901 73 93 C72.36835937 92.29101562 71.73671875 91.58203125 71.0859375 90.8515625 C68.45997668 87.88927173 65.89428226 84.87672169 63.33203125 81.859375 C57.73207562 75.27580547 52.0463913 68.8063603 46.15625 62.48046875 C42.94030561 59.02630626 39.79482045 55.52564408 36.70703125 51.95703125 C34.66366569 49.6144085 32.58319141 47.30726578 30.5 45 C27.25916425 41.4082108 24.05135443 37.79141527 20.875 34.14257812 C18.85649557 31.83601629 16.8226427 29.54371301 14.78515625 27.25390625 C14.07367432 26.45412354 13.36219238 25.65434082 12.62915039 24.83032227 C12.09153076 24.22631592 11.55391113 23.62230957 11 23 C10.98969254 24.03760971 10.97938507 25.07521942 10.96876526 26.14427185 C10.87120396 35.90082473 10.76848673 45.65731137 10.66066074 55.41375637 C10.60538761 60.43019298 10.55196074 65.44663537 10.50268555 70.46313477 C10.45510657 75.30014866 10.40276637 80.13708931 10.34705925 84.97401619 C10.32660629 86.8236618 10.30789819 88.67332752 10.29092598 90.52300835 C10.2669468 93.10452454 10.23688382 95.68590097 10.20532227 98.26733398 C10.1995668 99.03985001 10.19381134 99.81236603 10.18788147 100.60829163 C10.11405216 105.88594784 10.11405216 105.88594784 9 107 C7.1875 107.1328125 7.1875 107.1328125 5 107.125 C4.278125 107.12757813 3.55625 107.13015625 2.8125 107.1328125 C1 107 1 107 0 106 C-0.0953919 104.62123975 -0.12188622 103.23763084 -0.12025452 101.85557556 C-0.12162918 100.96230057 -0.12300385 100.06902557 -0.12442017 99.14868164 C-0.12082489 98.16109863 -0.11722961 97.17351562 -0.11352539 96.15600586 C-0.11367142 95.12198135 -0.11381744 94.08795685 -0.1139679 93.02259827 C-0.11326827 89.58665914 -0.10547358 86.15077347 -0.09765625 82.71484375 C-0.09579225 80.33972707 -0.09436826 77.96461 -0.09336853 75.5894928 C-0.08954197 69.32423856 -0.0797105 63.05900733 -0.06866455 56.79376221 C-0.0584534 50.4061311 -0.05387155 44.01849629 -0.04882812 37.63085938 C-0.03808836 25.08722974 -0.02120127 12.54361609 0 0 Z " fill="#f4e7d7" transform="translate(1460,158)"/>
<path d="M0 0 C0 4.62 0 9.24 0 14 C-1.7325 12.906875 -3.465 11.81375 -5.25 10.6875 C-15.61300638 4.69809537 -25.16848623 2.82716854 -37 5 C-48.27889036 8.09491475 -57.46031082 15.45787088 -63.4765625 25.453125 C-69.95199715 37.79810568 -71.53851788 53.05288556 -67.4375 66.5 C-62.54688576 78.7009749 -55.21612552 87.86921851 -43.125 93.4375 C-37.72913094 95.65757159 -33.01757644 96.15729959 -27.1875 96.125 C-26.50107422 96.12886719 -25.81464844 96.13273437 -25.10742188 96.13671875 C-24.42615234 96.13542969 -23.74488281 96.13414063 -23.04296875 96.1328125 C-22.43477295 96.13168457 -21.82657715 96.13055664 -21.19995117 96.12939453 C-18.11561004 95.94798283 -15.0586188 95.43694554 -12 95 C-12 83.12 -12 71.24 -12 59 C-6.39 59 -0.78 59 5 59 C5 71.87 5 84.74 5 98 C-12.33055854 106.66527927 -32.32480758 108.9584661 -51 103 C-66.62273903 96.92238273 -78.07785647 87.6928869 -85.28125 72.25390625 C-90.7712801 59.05822675 -90.82127452 43.68694223 -86.32421875 30.1484375 C-80.06380768 15.26380234 -68.68946156 4.96345225 -53.9375 -1.3125 C-36.23838192 -7.74603278 -17.58443048 -5.86147683 0 0 Z " fill="#f4e7d7" transform="translate(1011,5)"/>
<path d="M0 0 C1.65 0 3.3 0 5 0 C10.32260406 11.13940385 15.00402907 22.51917471 19.6875 33.9375 C20.93493994 36.97143206 22.18314347 40.00504932 23.43135071 43.03866577 C24.29407734 45.13570982 25.15644965 47.23289968 26.01847839 49.33023071 C29.15239086 56.95217086 32.30648335 64.56556684 35.46875 72.17578125 C36.783054 75.34253503 38.09708649 78.50940135 39.41104126 81.67630005 C40.26095934 83.72289433 41.11201065 85.76901837 41.96420288 87.81466675 C43.14989549 90.66159185 44.33127949 93.51026851 45.51171875 96.359375 C45.8670166 97.20925491 46.22231445 98.05913483 46.58837891 98.93476868 C49 104.77223303 49 104.77223303 49 107 C34.47036213 107.78656686 34.47036213 107.78656686 29 103 C26.88188819 99.83854528 25.4459217 96.51216166 24 93 C23.73767578 92.37432129 23.47535156 91.74864258 23.20507812 91.10400391 C18 78.65929922 18 78.65929922 18 76 C4.8 76 -8.4 76 -22 76 C-22.99 79.3 -23.98 82.6 -25 86 C-25.71335491 87.87272457 -26.45970184 89.73381 -27.26171875 91.5703125 C-27.65810547 92.48554688 -28.05449219 93.40078125 -28.46289062 94.34375 C-29.06907227 95.72046875 -29.06907227 95.72046875 -29.6875 97.125 C-30.31108398 98.55972656 -30.31108398 98.55972656 -30.94726562 100.0234375 C-31.95982052 102.35114989 -32.97919159 104.67589532 -34 107 C-37.3 107 -40.6 107 -44 107 C-42.06534198 101.00850329 -39.93124573 95.19622508 -37.47265625 89.40234375 C-36.9607373 88.18421745 -36.9607373 88.18421745 -36.43847656 86.94148254 C-35.31608907 84.27224107 -34.1892445 81.60490482 -33.0625 78.9375 C-31.86319772 76.08795304 -30.66513593 73.23788655 -29.46714783 70.38778687 C-28.62739467 68.39009504 -27.78726978 66.39255944 -26.9467926 64.39517212 C-21.95426747 52.52641217 -17.00912803 40.63794301 -12.0625 28.75 C-10.782127 25.67305749 -9.50164519 22.59616061 -8.22070312 19.51945496 C-7.4566055 17.68415925 -6.69282769 15.84873033 -5.92944336 14.01313782 C-3.97979072 9.3302076 -2.00752283 4.65842706 0 0 Z M-3 30 C-5.14074652 35.0884482 -7.27687256 40.17880115 -9.40869141 45.27099609 C-10.13495421 47.00395339 -10.86248918 48.73637809 -11.59130859 50.46826172 C-12.63712065 52.9540218 -13.6783812 55.44164521 -14.71875 57.9296875 C-15.04685669 58.70682098 -15.37496338 59.48395447 -15.7130127 60.28463745 C-17.39775189 64.0143516 -17.39775189 64.0143516 -18 68 C-7.44 68 3.12 68 14 68 C12.14449265 62.43347794 10.32512177 57.15593715 8.08203125 51.77734375 C7.81992355 51.14639297 7.55781586 50.5154422 7.2877655 49.8653717 C6.46562257 47.88817223 5.63915696 45.91281579 4.8125 43.9375 C4.24775709 42.58150086 3.68330172 41.22538193 3.11914062 39.86914062 C1.74940424 36.57804015 0.37579019 33.28857516 -1 30 C-1.66 30 -2.32 30 -3 30 Z " fill="#f4e7d7" transform="translate(862,158)"/>
<path d="M0 0 C1.65 0 3.3 0 5 0 C14.8846924 23.34702367 24.64719078 46.74012667 34.22573853 70.2144928 C36.01393966 74.59496779 37.81119662 78.97151908 39.62016296 83.34346008 C40.42317014 85.28468519 41.22406027 87.22676853 42.02416992 89.16918945 C42.98001826 91.48836689 43.93958077 93.80601843 44.90356445 96.12182617 C45.31695068 97.12834229 45.73033691 98.1348584 46.15625 99.171875 C46.51525391 100.0390918 46.87425781 100.90630859 47.24414062 101.79980469 C48 104 48 104 48 107 C34.5941675 107.58569171 34.5941675 107.58569171 30 104 C25.88627792 98.50156067 23.2486343 92.32548606 20.6875 86 C19.470625 83.03 18.25375 80.06 17 77 C-2.305 76.505 -2.305 76.505 -22 76 C-22.99 78.97 -23.98 81.94 -25 85 C-25.71529207 86.8232816 -26.453477 88.63796191 -27.2265625 90.4375 C-27.6184375 91.35144531 -28.0103125 92.26539062 -28.4140625 93.20703125 C-29.01347656 94.58955078 -29.01347656 94.58955078 -29.625 96 C-30.03234375 96.95261719 -30.4396875 97.90523438 -30.859375 98.88671875 C-33.86624765 105.86624765 -33.86624765 105.86624765 -35 107 C-38.00003445 107.14177857 -40.99757235 107.04228771 -44 107 C-41.79408441 98.21474912 -38.17804987 90.06075645 -34.59265137 81.77572632 C-32.69010646 77.37788463 -30.80586049 72.9722239 -28.921875 68.56640625 C-28.52526672 67.63955521 -28.12865845 66.71270416 -27.72003174 65.75776672 C-22.12827777 52.65794981 -16.73782925 39.47405419 -11.33398438 26.29589844 C-4.0532859 8.56602812 -4.0532859 8.56602812 0 0 Z M-3 30 C-5.14074652 35.0884482 -7.27687256 40.17880115 -9.40869141 45.27099609 C-10.13495421 47.00395339 -10.86248918 48.73637809 -11.59130859 50.46826172 C-12.63712065 52.9540218 -13.6783812 55.44164521 -14.71875 57.9296875 C-15.04685669 58.70682098 -15.37496338 59.48395447 -15.7130127 60.28463745 C-17.39775189 64.0143516 -17.39775189 64.0143516 -18 68 C-7.44 68 3.12 68 14 68 C10.63034909 58.75506032 7.0865906 49.62424293 3.25 40.5625 C2.66714233 39.16801636 2.66714233 39.16801636 2.07250977 37.74536133 C1.70311279 36.88193115 1.33371582 36.01850098 0.953125 35.12890625 C0.62473633 34.35619385 0.29634766 33.58348145 -0.04199219 32.78735352 C-0.87375479 30.82268119 -0.87375479 30.82268119 -3 30 Z " fill="#f4e7d7" transform="translate(1173,2)"/>
<path d="M0 0 C19.8 0 39.6 0 60 0 C60 2.97 60 5.94 60 9 C45.81 9 31.62 9 17 9 C17 21.54 17 34.08 17 47 C27.89 47 38.78 47 50 47 C50 49.97 50 52.94 50 56 C39.11 56 28.22 56 17 56 C17 69.86 17 83.72 17 98 C32.51 98 48.02 98 64 98 C64 100.97 64 103.94 64 107 C42.88 107 21.76 107 0 107 C0 71.69 0 36.38 0 0 Z " fill="#f4e7d7" transform="translate(1001,158)"/>
<path d="M0 0 C9.714375 -0.020625 19.42875 -0.04125 29.4375 -0.0625 C34.04416626 -0.07615601 34.04416626 -0.07615601 38.74389648 -0.09008789 C41.16129513 -0.09300679 43.57869426 -0.09555541 45.99609375 -0.09765625 C47.2648938 -0.10277222 48.53369385 -0.10788818 49.84094238 -0.11315918 C51.03868286 -0.11328003 52.23642334 -0.11340088 53.47045898 -0.11352539 C55.03932106 -0.11685631 55.03932106 -0.11685631 56.63987732 -0.12025452 C59 0 59 0 60 1 C60.125 4.5 60.125 4.5 60 8 C59 9 59 9 55.03100586 9.11352539 C53.25894393 9.1133662 51.4868774 9.10766785 49.71484375 9.09765625 C48.78402481 9.0962413 47.85320587 9.09482635 46.8941803 9.09336853 C43.90858809 9.08775172 40.92306971 9.0751964 37.9375 9.0625 C35.91862087 9.05748716 33.89974057 9.05292388 31.88085938 9.04882812 C26.92052129 9.03862587 21.9603437 9.01905382 17 9 C17 21.54 17 34.08 17 47 C27.89 47 38.78 47 50 47 C50 49.97 50 52.94 50 56 C39.11 56 28.22 56 17 56 C17 69.86 17 83.72 17 98 C32.51 98 48.02 98 64 98 C64 100.97 64 103.94 64 107 C42.88 107 21.76 107 0 107 C0 71.69 0 36.38 0 0 Z " fill="#f4e7d7" transform="translate(778,2)"/>
<path d="M0 0 C19.47 0 38.94 0 59 0 C59 2.97 59 5.94 59 9 C45.14 9 31.28 9 17 9 C17 21.54 17 34.08 17 47 C27.89 47 38.78 47 50 47 C50 49.97 50 52.94 50 56 C39.11 56 28.22 56 17 56 C17 69.86 17 83.72 17 98 C32.51 98 48.02 98 64 98 C64 100.97 64 103.94 64 107 C42.88 107 21.76 107 0 107 C0 71.69 0 36.38 0 0 Z " fill="#f4e7d7" transform="translate(1341,2)"/>
<path d="M0 0 C27.72 0 55.44 0 84 0 C84 2.97 84 5.94 84 9 C73.11 9 62.22 9 51 9 C51.00523682 11.93318115 51.01047363 14.8663623 51.01586914 17.88842773 C51.0324034 27.55557362 51.04347056 37.22272011 51.05181217 46.88987637 C51.05704146 52.75382164 51.06413994 58.61775249 51.07543945 64.48168945 C51.0862667 70.13561712 51.09227649 75.78953087 51.09487724 81.44346809 C51.09673179 83.6057361 51.10035295 85.76800331 51.10573006 87.93026543 C51.11293833 90.94758657 51.11399103 93.96484943 51.11352539 96.98217773 C51.11712067 97.8856041 51.12071594 98.78903046 51.12442017 99.71983337 C51.11405216 105.88594784 51.11405216 105.88594784 50 107 C44.39 107 38.78 107 33 107 C33 74.66 33 42.32 33 9 C22.11 9 11.22 9 0 9 C0 6.03 0 3.06 0 0 Z " fill="#f4e7d7" transform="translate(902,158)"/>
<path d="M0 0 C9.714375 -0.020625 19.42875 -0.04125 29.4375 -0.0625 C34.04416626 -0.07615601 34.04416626 -0.07615601 38.74389648 -0.09008789 C41.16129513 -0.09300679 43.57869426 -0.09555541 45.99609375 -0.09765625 C47.2648938 -0.10277222 48.53369385 -0.10788818 49.84094238 -0.11315918 C51.03868286 -0.11328003 52.23642334 -0.11340088 53.47045898 -0.11352539 C55.03932106 -0.11685631 55.03932106 -0.11685631 56.63987732 -0.12025452 C59 0 59 0 60 1 C60.125 4.5 60.125 4.5 60 8 C59 9 59 9 55.03100586 9.11352539 C53.25894393 9.1133662 51.4868774 9.10766785 49.71484375 9.09765625 C48.78402481 9.0962413 47.85320587 9.09482635 46.8941803 9.09336853 C43.90858809 9.08775172 40.92306971 9.0751964 37.9375 9.0625 C35.91862087 9.05748716 33.89974057 9.05292388 31.88085938 9.04882812 C26.92052129 9.03862587 21.9603437 9.01905382 17 9 C17 21.54 17 34.08 17 47 C27.89 47 38.78 47 50 47 C50 49.97 50 52.94 50 56 C39.11 56 28.22 56 17 56 C17 72.83 17 89.66 17 107 C11.39 107 5.78 107 0 107 C0 71.69 0 36.38 0 0 Z " fill="#f4e7d7" transform="translate(1178,158)"/>
<path d="M0 0 C28.05 0 56.1 0 85 0 C85 2.97 85 5.94 85 9 C73.78 9 62.56 9 51 9 C51 41.34 51 73.68 51 107 C45.39 107 39.78 107 34 107 C34 74.66 34 42.32 34 9 C22.78 9 11.56 9 0 9 C0 6.03 0 3.06 0 0 Z " fill="#f4e7d7" transform="translate(1565,158)"/>
<path d="M0 0 C5.61 0 11.22 0 17 0 C17 32.34 17 64.68 17 98 C33.17 98 49.34 98 66 98 C66 100.97 66 103.94 66 107 C44.22 107 22.44 107 0 107 C0 71.69 0 36.38 0 0 Z " fill="#f4e7d7" transform="translate(856,2)"/>
</svg>
