<?xml version="1.0" encoding="UTF-8"?>
<svg version="1.1" xmlns="http://www.w3.org/2000/svg" width="5000" height="507">
<path d="M0 0 C0.58604004 0.43054687 1.17208008 0.86109375 1.77587891 1.3046875 C8.3836522 6.18973972 14.67711166 11.34035443 20.7265625 16.91015625 C22.84630212 18.85871415 25.00483469 20.74757333 27.1875 22.625 C33.65718811 28.27623359 39.48510243 34.41972449 45 41 C45.42410156 41.50499023 45.84820313 42.00998047 46.28515625 42.53027344 C58.5470778 57.22579363 69.1630535 73.01862302 78 90 C78.4316748 90.82532227 78.86334961 91.65064453 79.30810547 92.50097656 C106.98716763 146.09047071 113.62710795 203.23477762 95.78979492 260.82446289 C86.52476955 289.51526255 72.80422802 316.34861265 54 340 C53.28457031 340.9075 52.56914062 341.815 51.83203125 342.75 C39.74511215 357.81051513 26.33546395 372.21548456 11 384 C10.03658691 384.75337646 10.03658691 384.75337646 9.05371094 385.52197266 C-29.16108919 415.27680668 -73.06795134 432.84118229 -121 439 C-121.74749512 439.103125 -122.49499023 439.20625 -123.26513672 439.3125 C-132.16833371 440.39050872 -141.17058215 440.24390947 -150.125 440.25 C-151.01605438 440.25067474 -151.90710876 440.25134949 -152.82516479 440.25204468 C-167.08431888 440.23492339 -180.9438456 439.56688785 -195 437 C-196.35375732 436.76651855 -196.35375732 436.76651855 -197.73486328 436.52832031 C-237.7595808 429.45641642 -276.18845702 412.28253634 -308 387 C-308.89589844 386.29617188 -309.79179687 385.59234375 -310.71484375 384.8671875 C-318.1352791 378.92658072 -325.11158694 372.54195442 -332 366 C-333.24136719 364.82244141 -333.24136719 364.82244141 -334.5078125 363.62109375 C-339.64700179 358.61620383 -344.26470517 353.301137 -348.69433594 347.66064453 C-349.61993306 346.48339853 -350.55081762 345.31030101 -351.48535156 344.14013672 C-359.89677952 333.59086894 -367.34965643 322.74141221 -374 311 C-374.46148438 310.18547363 -374.92296875 309.37094727 -375.3984375 308.53173828 C-390.42646174 281.66706925 -399.41206107 253.16147259 -405 223 C-405.13422363 222.29568848 -405.26844727 221.59137695 -405.40673828 220.86572266 C-415.062325 168.64950477 -393.87167484 108.48201371 -364.5 65.625 C-355.85479831 53.29727048 -346.44268719 41.84147542 -336 31 C-335.41702148 30.38979004 -334.83404297 29.77958008 -334.23339844 29.15087891 C-326.23372454 20.81274089 -318.02450634 13.17878176 -308.73730469 6.29736328 C-307.01624144 5.01212858 -305.323612 3.6957984 -303.6328125 2.37109375 C-221.67862169 -60.92610573 -103.63668786 -63.92806084 0 0 Z M-268 69 C-268.93328125 69.88300781 -269.8665625 70.76601562 -270.828125 71.67578125 C-298.59432289 98.47248899 -317.25076708 138.87722508 -318.16113281 177.65161133 C-318.18097695 179.29502444 -318.19472364 180.93851981 -318.203125 182.58203125 C-318.20882507 183.47629318 -318.21452515 184.37055511 -318.22039795 185.29191589 C-318.22978993 187.1785669 -318.23635865 189.06523389 -318.24023438 190.9519043 C-318.24984493 193.7670761 -318.28088468 196.58148618 -318.3125 199.39648438 C-318.53100578 236.9970002 -307.08502479 273.15382718 -284 303 C-283.30648437 303.91652344 -282.61296875 304.83304687 -281.8984375 305.77734375 C-254.41722628 340.8236075 -213.83141387 363.03671596 -169.78125 368.5546875 C-127.63531876 373.02585988 -83.97839673 361.12551319 -50.91796875 334.4296875 C-46.48804112 330.74104628 -42.18443384 326.96524921 -38 323 C-37.10539062 322.15824219 -36.21078125 321.31648438 -35.2890625 320.44921875 C-4.88006276 291.01978062 12.19145956 249.11845135 13 207 C13.02046387 206.14857422 13.04092773 205.29714844 13.06201172 204.41992188 C14.14784145 153.34105532 -1.00906954 108.47735569 -36.53808594 71.12475586 C-66.75323709 40.18908957 -109.21108533 22.75804295 -152.3046875 21.99316406 C-195.81733915 22.10352224 -236.92382635 38.58221986 -268 69 Z " fill="#f4e7d7" transform="translate(2846,59)"/>
<path d="M0 0 C28.71 0 57.42 0 87 0 C87.33 80.52 87.66 161.04 88 244 C93.94 237.565 93.94 237.565 100 231 C104.8125 226.1875 104.8125 226.1875 106.9921875 224.0390625 C108.89428381 222.10736158 110.67435947 220.12086406 112.4375 218.0625 C115.15619248 214.8896408 118.02751675 211.93661618 121 209 C123.93118191 206.10408042 126.76403174 203.19757429 129.4375 200.0625 C132.74346118 196.19382202 136.33144678 192.63935695 139.95068359 189.06884766 C143.19984173 185.84649591 146.22436334 182.50668184 149.19140625 179.02734375 C152.17650116 175.68120064 155.40882768 172.58406048 158.59765625 169.43359375 C160.63714373 167.36757635 162.555078 165.26994451 164.4375 163.0625 C167.74346118 159.19382202 171.33144678 155.63935695 174.95068359 152.06884766 C178.19984173 148.84649591 181.22436334 145.50668184 184.19140625 142.02734375 C187.17650116 138.68120064 190.40882768 135.58406048 193.59765625 132.43359375 C195.63714373 130.36757635 197.555078 128.26994451 199.4375 126.0625 C202.74346118 122.19382202 206.33144678 118.63935695 209.95068359 115.06884766 C213.19984173 111.84649591 216.22436334 108.50668184 219.19140625 105.02734375 C222.17650116 101.68120064 225.40882768 98.58406048 228.59765625 95.43359375 C230.63714373 93.36757635 232.555078 91.26994451 234.4375 89.0625 C237.74346118 85.19382202 241.33144678 81.63935695 244.95068359 78.06884766 C248.19984173 74.84649591 251.22436334 71.50668184 254.19140625 68.02734375 C257.17650116 64.68120064 260.40882768 61.58406048 263.59765625 58.43359375 C265.63714373 56.36757635 267.555078 54.26994451 269.4375 52.0625 C272.74346118 48.19382202 276.33144678 44.63935695 279.95068359 41.06884766 C283.19984173 37.84649591 286.22436334 34.50668184 289.19140625 31.02734375 C292.17650116 27.68120064 295.40882768 24.58406048 298.59765625 21.43359375 C300.63714373 19.36757635 302.555078 17.26994451 304.4375 15.0625 C304.97243576 14.47008011 305.50737152 13.87766022 306.05851746 13.26728821 C308.08222322 10.98620898 308.08222322 10.98620898 309.89350891 8.23478699 C313.98758652 3.03232634 317.38570298 -0.0855279 324.12289429 -0.96737671 C330.576305 -1.41713029 337.01910134 -1.23810576 343.48046875 -1.07421875 C345.86367692 -1.05367758 348.24693184 -1.03803122 350.63020325 -1.02705383 C356.87361089 -0.98524771 363.11415977 -0.87736871 369.35644531 -0.75531006 C375.73788791 -0.64235787 382.11979695 -0.59245387 388.50195312 -0.53710938 C401.00255149 -0.41948076 413.50103714 -0.23198389 426 0 C425.05296263 1.10772442 424.10551489 2.215098 423.15789795 3.32232666 C422.63033276 3.93903355 422.10276756 4.55574043 421.55921555 5.19113541 C413.40378463 14.6523483 404.62981096 23.47754427 395.75 32.25 C387.41788872 40.35384332 387.41788872 40.35384332 379.578125 48.921875 C373.5571319 55.99128137 366.70290605 62.34802795 360.10644531 68.87304688 C352.06795589 76.7145128 352.06795589 76.7145128 344.5 85 C338.51510679 92.04987421 331.67552848 98.37510901 325.10644531 104.87304688 C317.06795589 112.7145128 317.06795589 112.7145128 309.5 121 C303.51510679 128.04987421 296.67552848 134.37510901 290.10644531 140.87304688 C282.08221076 148.69770782 282.08221076 148.69770782 274.53125 156.96875 C268.36385087 164.23360612 261.30171929 170.74836072 254.53369141 177.44580078 C245.21754704 186.62828474 245.21754704 186.62828474 236.45898438 196.3359375 C233.49655886 199.7147682 230.14799861 202.74126888 226.8359375 205.7734375 C225.08313971 207.40082097 225.08313971 207.40082097 223 210 C223.30253224 213.43706567 224.95928936 215.57338914 227.03515625 218.24609375 C227.98986816 219.48613159 227.98986816 219.48613159 228.96386719 220.7512207 C229.65641602 221.63769287 230.34896484 222.52416504 231.0625 223.4375 C232.52749779 225.33581863 233.99233707 227.2342596 235.45703125 229.1328125 C236.21064941 230.10508789 236.96426758 231.07736328 237.74072266 232.07910156 C241.26759433 236.63880469 244.75894299 241.22535439 248.25 245.8125 C248.91692871 246.68737061 249.58385742 247.56224121 250.27099609 248.46362305 C254.75751229 254.3526589 259.20893176 260.26691462 263.64257812 266.19580078 C268.78061439 273.05865017 273.99845422 279.85981134 279.21240234 286.66503906 C287.18414032 297.07772713 295.14672014 307.4975668 303 318 C310.26643924 327.71751421 317.6376674 337.35506803 325 347 C332.91713762 357.37174736 340.82834065 367.74622483 348.64257812 378.19580078 C353.78061439 385.05865017 358.99845422 391.85981134 364.21240234 398.66503906 C372.18414032 409.07772713 380.14672014 419.4975668 388 430 C394.57397139 438.79146695 401.23564844 447.51559208 407.89599609 456.24169922 C410.04330798 459.05677576 412.18805523 461.87378843 414.33203125 464.69140625 C415.04069336 465.62251221 415.74935547 466.55361816 416.47949219 467.51293945 C417.82289852 469.27816781 419.16601896 471.0436138 420.50878906 472.80932617 C421.12592773 473.61990479 421.74306641 474.4304834 422.37890625 475.265625 C422.9733252 476.04873047 423.56774414 476.83183594 424.18017578 477.63867188 C425.44088586 479.27451677 426.72203779 480.89473317 428.01904297 482.50195312 C428.66115723 483.30052734 429.30327148 484.09910156 429.96484375 484.921875 C430.83870728 485.99066895 430.83870728 485.99066895 431.73022461 487.08105469 C433 489 433 489 433 492 C431.97060303 491.99274902 430.94120605 491.98549805 429.88061523 491.97802734 C428.29411209 491.97130446 426.70760386 491.96574381 425.12109375 491.9609375 C424.21306503 491.95814789 423.30503632 491.95535828 422.36949158 491.95248413 C415.81397314 491.95176712 409.26485741 492.04702019 402.71142578 492.19628906 C394.65339164 492.37977748 386.59693035 492.4894935 378.53696632 492.5414772 C373.8102297 492.57515435 369.0888329 492.64313634 364.36401367 492.78515625 C331.10194092 493.74661803 331.10194092 493.74661803 323.59667969 487.24438477 C320.3699582 483.57329413 318.09480299 479.60520008 316.0496521 475.18188477 C314.64133734 472.25445718 312.75762531 469.88418955 310.6953125 467.38671875 C309.50425676 465.82103593 308.3141369 464.25464068 307.125 462.6875 C305.77346328 460.91013664 304.4219 459.13279349 303.0703125 457.35546875 C302.39774414 456.47036621 301.72517578 455.58526367 301.03222656 454.67333984 C297.69196774 450.27931844 294.34571399 445.88986818 291 441.5 C289.66663724 439.75002242 288.33330392 438.00002241 287 436.25 C286.34 435.38375 285.68 434.5175 285 433.625 C283 431 281 428.375 279 425.75 C278.00987915 424.45050415 278.00987915 424.45050415 276.99975586 423.12475586 C275.66713824 421.37564439 274.33461862 419.62645825 273.00219727 417.87719727 C269.65871529 413.4879836 266.31351262 409.10010178 262.96484375 404.71484375 C256.39620884 396.10912069 249.8546811 387.4854463 243.375 378.8125 C238.01909057 371.64534233 232.57173567 364.55733802 227.06030273 357.50927734 C222.79132025 352.04174009 218.60810011 346.5157954 214.45922852 340.95678711 C209.84566394 334.77870848 205.16228788 328.65558151 200.47265625 322.53515625 C196.03137664 316.73869411 191.60788085 310.92870393 187.18408203 305.11889648 C183.62444402 300.44413424 180.06249276 295.77116965 176.49609375 291.1015625 C175.76430908 290.14282227 175.03252441 289.18408203 174.27856445 288.19628906 C172.87026576 286.35133955 171.46127712 284.50691644 170.05151367 282.66308594 C169.10175659 281.41833496 169.10175659 281.41833496 168.1328125 280.1484375 C167.57480957 279.41802246 167.01680664 278.68760742 166.44189453 277.93505859 C165.24354724 276.3268465 164.11249994 274.66874991 163 273 C158.66610201 274.66607271 155.86704965 277.87528607 152.6875 281.125 C152.14416016 281.66898437 151.60082031 282.21296875 151.04101562 282.7734375 C148.18012544 285.66472675 145.44384921 288.61928636 142.80078125 291.7109375 C137.52961961 297.79805711 131.69848053 303.35780296 125.97021484 309.00927734 C124.4675623 310.49359897 122.96811835 311.98111204 121.46875 313.46875 C120.58638672 314.33951172 119.70402344 315.21027344 118.79492188 316.10742188 C116.72882506 318.18501122 114.8669575 320.36644529 113.00004578 322.62348938 C110.17595819 325.88627805 107.19218913 328.53693682 103.80244446 331.20317078 C93.85801119 339.33674709 87.06778 346.07758275 85.70324993 359.37431049 C85.35184661 365.92400354 85.45722807 372.45300637 85.66879821 379.00513291 C85.77352489 382.95658748 85.75629483 386.90769949 85.75325012 390.86027527 C85.76540865 398.31010158 85.88363396 405.75411847 86.04221755 413.20211095 C86.25068139 423.29013601 86.29080937 433.37883772 86.34151173 443.46865749 C86.42549084 459.3163772 86.73042509 475.15183306 87 491 C58.29 491 29.58 491 0 491 C0 328.97 0 166.94 0 0 Z " fill="#f4e7d7" transform="translate(4167,9)"/>
<path d="M0 0 C1.29518555 0.00862061 2.59037109 0.01724121 3.92480469 0.02612305 C7.88777022 0.05814243 11.84997757 0.11973902 15.8125 0.1875 C17.58971436 0.21650391 17.58971436 0.21650391 19.40283203 0.24609375 C86.28509979 1.53539048 144.3730854 22.14734865 197.8125 62.1875 C196.45733009 65.02832004 194.93465438 67.60889 193.16015625 70.20703125 C192.63687744 70.97394287 192.11359863 71.74085449 191.57446289 72.53100586 C191.01364014 73.34577393 190.45281738 74.16054199 189.875 75 C188.99992798 76.27532593 188.99992798 76.27532593 188.10717773 77.57641602 C184.18927874 83.2595281 180.17365098 88.85732585 176.05786133 94.39819336 C171.52280193 100.5233513 167.1760267 106.77732828 162.84594727 113.04858398 C159.01122455 118.57445465 154.99377182 123.91909751 150.8125 129.1875 C147.15484801 127.79507491 144.68227499 126.41044084 141.75 123.8125 C106.4010989 94.8379909 52.27717188 76.9672106 6.71484375 80.44921875 C-12.06291582 82.46574662 -29.69318096 87.51196617 -44.1875 100.1875 C-45.12722656 100.98607422 -45.12722656 100.98607422 -46.0859375 101.80078125 C-55.93757572 110.81352451 -60.45490042 123.66541373 -61.1875 136.71484375 C-61.1875 151.58495832 -56.84092852 162.96454551 -47.1875 174.1875 C-20.31157631 196.07330335 16.34497302 203.46069561 49.171875 211.84765625 C76.08237561 218.73281117 102.7743305 225.86398291 127.8125 238.1875 C128.64152832 238.59049316 129.47055664 238.99348633 130.32470703 239.40869141 C148.47300639 248.30714761 164.51397925 258.85484226 178.8125 273.1875 C179.69421875 274.05761719 180.5759375 274.92773438 181.484375 275.82421875 C203.20076119 298.38363235 212.30405531 328.88690611 212.04467773 359.67822266 C211.16847359 398.24001122 197.67694815 432.24486176 170.328125 459.6796875 C149.96666671 479.01704877 123.58017634 490.70397307 96.625 497.4375 C95.7076709 497.67178711 94.7903418 497.90607422 93.84521484 498.14746094 C74.22260128 502.77196192 54.26770206 503.74035017 34.1875 503.625 C32.49019745 503.62043793 32.49019745 503.62043793 30.75860596 503.61578369 C12.80170078 503.54465785 -4.53096256 502.68238569 -22.1875 499.1875 C-23.27949707 498.97851074 -24.37149414 498.76952148 -25.49658203 498.55419922 C-79.73852108 487.90366405 -127.58288838 462.00423603 -169.1875 426.1875 C-168.59871629 423.04204286 -167.69176529 421.27606179 -165.5625 418.90234375 C-164.75703735 417.99150024 -164.75703735 417.99150024 -163.93530273 417.06225586 C-163.35852783 416.42296143 -162.78175293 415.78366699 -162.1875 415.125 C-160.98968673 413.7718935 -159.79307654 412.41772107 -158.59765625 411.0625 C-158.01129395 410.39992188 -157.42493164 409.73734375 -156.82080078 409.0546875 C-154.69574151 406.62532229 -152.65345646 404.13535495 -150.625 401.625 C-146.71868331 396.80123646 -142.69179765 392.09272228 -138.63964844 387.3918457 C-134.76028586 382.88143519 -130.98418088 378.29461148 -127.234375 373.67578125 C-124.29947816 370.10797727 -121.26078331 366.63629703 -118.1875 363.1875 C-114.67414229 364.14568847 -112.62949945 365.59934597 -110.1875 368.1875 C-74.50304717 405.33316965 -16.21628704 424.30425913 33.97021484 425.47045898 C58.63998722 425.73262677 86.30573756 421.68006979 105.79296875 405.2109375 C117.18447414 393.79739825 122.87248907 380.61842392 123.0625 364.5625 C123.04114526 351.28137494 119.53518301 339.14650954 110.4375 329.125 C85.1080071 305.71078067 46.06832592 298.88105373 13.7883606 290.77099609 C-25.47716554 280.90078316 -67.21492791 269.69697226 -100.1875 245.1875 C-101.06792969 244.54683594 -101.94835938 243.90617188 -102.85546875 243.24609375 C-127.32062372 224.61523647 -142.66986735 198.50230573 -147.36083984 168.16650391 C-149.81808511 149.18212049 -149.3979637 129.65014765 -144.1875 111.1875 C-143.97319336 110.424375 -143.75888672 109.66125 -143.53808594 108.875 C-137.25577572 87.22069054 -126.77542579 68.34455442 -112.1875 51.1875 C-111.53007812 50.40761719 -110.87265625 49.62773438 -110.1953125 48.82421875 C-105.86553256 43.8121194 -101.32441291 39.3634258 -96.1875 35.1875 C-95.26453125 34.42695312 -94.3415625 33.66640625 -93.390625 32.8828125 C-76.914964 19.58896599 -58.74029758 10.82200467 -38.5 4.875 C-37.68176758 4.63233398 -36.86353516 4.38966797 -36.02050781 4.13964844 C-24.13706825 0.81754809 -12.29673184 -0.13358886 0 0 Z " fill="#f4e7d7" transform="translate(2177.1875,2.8125)"/>
<path d="M0 0 C27.06 0 54.12 0 82 0 C90.85758842 20.15624451 99.71187303 40.31339848 108.5 60.5 C114.30930399 73.84395113 120.14430961 87.17634018 126 100.5 C131.87401091 113.86638951 137.73122844 127.23990617 143.5625 140.625 C144.08627731 141.82724213 144.08627731 141.82724213 144.62063599 143.05377197 C147.43211512 149.50766933 150.2421532 155.96219388 153.05212402 162.41674805 C155.51323509 168.06979541 157.97497264 173.72256944 160.4375 179.375 C160.78527496 180.17334259 161.13304993 180.97168518 161.49136353 181.79421997 C167.43578469 195.43751187 173.41574828 209.06502778 179.4045105 222.68890381 C184.64955179 234.6226193 189.85822197 246.57097095 195.02832031 258.53735352 C199.64479013 269.2095201 204.31988891 279.85561284 209 290.5 C214.71387767 303.49557317 220.39695455 316.50318125 226.02734375 329.53515625 C230.64419659 340.20803051 235.31956621 350.8548789 240 361.5 C245.19715186 373.32033833 250.37870553 385.14657579 255.5 397 C260.16261724 407.79026853 264.87039724 418.55998975 269.60015869 429.32098389 C270.74299858 431.92156794 271.885061 434.52249196 273.02685547 437.12353516 C273.79133319 438.86491235 274.5558189 440.60628603 275.3203125 442.34765625 C275.70126068 443.21539673 276.08220886 444.08313721 276.47470093 444.97717285 C278.8790245 450.452184 281.288858 455.92473908 283.70153809 461.39607239 C285.29779254 465.01907896 286.88948367 468.64407797 288.48010254 472.26956177 C289.23942519 473.99754906 290.0007173 475.72467234 290.76403809 477.45089722 C291.81909935 479.837477 292.86736309 482.22693113 293.9140625 484.6171875 C294.38608597 485.67823952 294.38608597 485.67823952 294.86764526 486.76072693 C296.14010424 489.68309833 297 491.7756458 297 495 C266.64 495 236.28 495 205 495 C202.256875 488.503125 199.51375 482.00625 196.6875 475.3125 C195.76412842 473.12560547 194.84075684 470.93871094 193.8894043 468.68554688 C189.97482017 459.41432522 186.0602978 450.14307754 182.1463623 440.87158203 C181.31509987 438.90249115 180.48380133 436.9334155 179.65246582 434.96435547 C177.63731437 430.19134417 175.62260157 425.41814884 173.60888672 420.64453125 C170.20640541 412.58046936 166.79974675 404.51839666 163.36328125 396.46875 C162.83262779 395.22357466 162.30202638 393.97837713 161.77148438 392.7331543 C160.83186483 390.53017414 159.88937955 388.32841297 158.94335938 386.12817383 C158.54568359 385.19513428 158.14800781 384.26209473 157.73828125 383.30078125 C157.39837158 382.50841064 157.05846191 381.71604004 156.70825195 380.8996582 C156 379 156 379 156 377 C107.49 377 58.98 377 9 377 C9.79257283 373.03713585 10.63875684 370.18243077 12.20556641 366.5456543 C12.66339508 365.47651291 13.12122375 364.40737152 13.59292603 363.30583191 C14.09077606 362.15689957 14.5886261 361.00796722 15.1015625 359.82421875 C15.61625092 358.62626175 16.13093933 357.42830475 16.66122437 356.19404602 C18.03189029 353.00410421 19.40842256 349.81672626 20.78613281 346.62982178 C22.16193591 343.44427303 23.53177973 340.25616472 24.90234375 337.06835938 C30.22647053 324.69366616 35.60030733 312.34215467 41 300 C68.39 300 95.78 300 124 300 C119.05 288.78 114.1 277.56 109 266 C104.29992728 255.12733633 104.29992728 255.12733633 102.20266724 250.19586182 C100.67757437 246.61033874 99.14480188 243.02809355 97.61328125 239.4453125 C97.30758713 238.72975189 97.00189301 238.01419128 96.68693542 237.27694702 C93.66886901 230.21610617 90.6193521 223.16913268 87.5625 216.125 C87.03938232 214.91948486 86.51626465 213.71396973 85.97729492 212.47192383 C85.16871664 210.60866618 84.36011299 208.74541957 83.55140686 206.88221741 C79.41450137 197.34923576 75.29336722 187.80942244 71.17016602 178.27050781 C70.49235793 176.70247064 69.81454214 175.13443681 69.13671875 173.56640625 C68.79896927 172.78506317 68.46121979 172.00372009 68.11323547 171.19869995 C66.00459687 166.32138152 63.89376902 161.44501656 61.78131104 156.5693512 C60.02029727 152.50481718 58.26009321 148.43993272 56.5 144.375 C56.16236633 143.59546967 55.82473267 142.81593933 55.47686768 142.01278687 C51.2946585 132.35400815 47.13121167 122.68877267 43.1171875 112.95849609 C41.94310006 109.74229785 41.94310006 109.74229785 40 107 C30.87372423 128.22316832 21.78292332 149.46042667 12.8125 170.75 C5.7477122 187.51689703 -1.36279871 204.26380029 -8.5 221 C-15.53060477 237.48719886 -22.53877073 253.9833866 -29.5 270.5 C-36.94921857 288.17444491 -44.45519956 305.82426422 -51.97851562 323.46728516 C-58.51555426 338.7990218 -65.0267609 354.14122017 -71.5 369.5 C-78.94214633 387.15766491 -86.43978164 404.79125937 -93.95736694 422.41693115 C-99.19564663 434.69939078 -104.42436578 446.98565252 -109.61328125 459.2890625 C-110.05707123 460.34132019 -110.50086121 461.39357788 -110.95809937 462.47772217 C-113.05393495 467.44896774 -115.14743841 472.42118384 -117.23828125 477.39453125 C-117.97786149 479.15104297 -118.71744464 480.90755346 -119.45703125 482.6640625 C-119.78923172 483.45616119 -120.12143219 484.24825989 -120.46369934 485.06436157 C-120.77063217 485.79287323 -121.077565 486.52138489 -121.39379883 487.27197266 C-121.65751785 487.89963531 -121.92123688 488.52729797 -122.19294739 489.17398071 C-123.06437636 491.14565651 -124.03595707 493.07191413 -125 495 C-154.37 495 -183.74 495 -214 495 C-213.20219327 490.21315962 -212.46891398 487.37068106 -210.515625 483.125 C-209.99967773 481.99143066 -209.48373047 480.85786133 -208.95214844 479.68994141 C-208.67560425 479.09062805 -208.39906006 478.4913147 -208.11413574 477.87384033 C-206.61277889 474.61821407 -205.13638192 471.35125353 -203.65625 468.0859375 C-203.19638702 467.07386734 -203.19638702 467.07386734 -202.72723389 466.04135132 C-199.65550141 459.2698396 -196.69363479 452.45321448 -193.75 445.625 C-192.66696552 443.11575637 -191.5834493 440.60672079 -190.5 438.09765625 C-190.22200562 437.45358322 -189.94401123 436.80951019 -189.65759277 436.1459198 C-186.04285413 427.77559029 -182.39530872 419.41954876 -178.75 411.0625 C-178.02635686 409.40316206 -177.3027241 407.74381959 -176.57910156 406.08447266 C-175.11601422 402.72959875 -173.65277385 399.37479164 -172.18945312 396.02001953 C-168.6247671 387.84734889 -165.06254514 379.67360404 -161.5 371.5 C-160.07945258 368.2408743 -158.65887915 364.98175994 -157.23828125 361.72265625 C-156.88701675 360.91679077 -156.53575226 360.11092529 -156.17384338 359.28063965 C-154.07948 354.4759502 -151.98467175 349.671455 -149.88948059 344.86712646 C-148.15533245 340.89065172 -146.42139743 336.91408407 -144.6875 332.9375 C-144.34137665 332.14373962 -143.9952533 331.34997925 -143.63864136 330.53216553 C-139.45834476 320.94482634 -135.28376059 311.35503058 -131.1171875 301.76171875 C-129.43235518 297.88278491 -127.74747327 294.00387262 -126.0625 290.125 C-125.64306122 289.15941162 -125.22362244 288.19382324 -124.79147339 287.19897461 C-118.80959609 273.43101349 -112.79388529 259.67834388 -106.75 245.9375 C-100.43615618 231.582644 -94.17956367 217.20424702 -87.96557617 202.8059082 C-83.18730962 191.73563504 -78.38335515 180.67679219 -73.5625 169.625 C-73.2100119 168.8168988 -72.8575238 168.00879761 -72.49435425 167.1762085 C-70.71026757 163.08640513 -68.92577969 158.99677698 -67.14111328 154.90722656 C-63.94563861 147.58430171 -60.75369934 140.25983581 -57.56149292 132.93548584 C-55.79114007 128.87359411 -54.02055846 124.81180211 -52.25 120.75 C-51.54166557 119.12500048 -50.83333224 117.50000048 -50.125 115.875 C-48.70833333 112.625 -47.29166667 109.375 -45.875 106.125 C-45.34909271 104.91850548 -45.34909271 104.91850548 -44.81256104 103.68763733 C-44.10402688 102.06217842 -43.3954901 100.43672066 -42.68695068 98.81126404 C-40.91916836 94.75579475 -39.15143134 90.70030572 -37.38378906 86.64477539 C-33.7933331 78.40727166 -30.20205695 70.1701269 -26.609375 61.93359375 C-22.40330767 52.2903437 -18.19962347 42.64605823 -14 33 C-13.50512085 31.86331879 -13.50512085 31.86331879 -13.00024414 30.70367432 C-11.11796883 26.37947504 -9.23738243 22.05454775 -7.35925293 17.72854614 C-6.79238026 16.42324511 -6.22508788 15.11812626 -5.65734863 13.8132019 C-4.8849169 12.03746175 -4.11428393 10.26093948 -3.34375 8.484375 C-2.91255859 7.49147461 -2.48136719 6.49857422 -2.03710938 5.47558594 C-0.93781259 2.9382736 -0.93781259 2.9382736 0 0 Z " fill="#f4e7d7" transform="translate(683,4)"/>
<path d="M0 0 C3.81693234 0.01609697 7.63280625 0.00004398 11.44970703 -0.01904297 C30.99069745 -0.03654526 50.08526849 1.45762369 69.13330078 6.01611328 C70.73069092 6.39352661 70.73069092 6.39352661 72.36035156 6.77856445 C118.44935131 18.1167421 160.00435235 41.60209111 193.32080078 75.39111328 C191.87363871 80.0878908 189.11017319 83.06879913 185.75830078 86.51611328 C181.11108076 91.41355754 176.76082024 96.44415764 172.53173828 101.71142578 C170.21145128 104.52364643 167.79008944 107.20908591 165.32080078 109.89111328 C162.04661655 113.44781572 158.91437645 117.06273139 155.88330078 120.82861328 C152.06126704 125.57367842 148.02918568 130.0675402 143.86206055 134.50805664 C141.28980047 137.23026302 141.28980047 137.23026302 139.32080078 140.39111328 C135.94589985 138.94365577 133.93443585 137.13107474 131.44580078 134.45361328 C97.9451034 100.29603948 47.54259798 80.6201062 0.00830078 80.07861328 C-35.09755621 80.22560472 -70.50850794 93.2861441 -97.67919922 115.39111328 C-98.23849121 115.84357422 -98.7977832 116.29603516 -99.37402344 116.76220703 C-133.43701465 144.50122774 -154.42396403 184.10049168 -159.28662109 227.7668457 C-160.06130533 235.87224421 -160.01286504 244.01778607 -159.99487305 252.15283203 C-159.99171818 255.12325991 -160.01525128 258.09268285 -160.04052734 261.06298828 C-160.09517021 277.31726197 -158.70481781 293.38319841 -153.99169922 309.01611328 C-153.73751221 309.87744873 -153.4833252 310.73878418 -153.22143555 311.6262207 C-146.15702966 334.65901726 -134.05371542 355.50405016 -117.72216797 373.15673828 C-115.99966749 375.04062026 -114.39803555 376.96245959 -112.80419922 378.95361328 C-108.68586805 383.76768432 -103.66581472 387.52293323 -98.67919922 391.39111328 C-97.87313232 392.0335498 -97.87313232 392.0335498 -97.05078125 392.68896484 C-64.2657593 418.73786052 -22.5443744 429.91602817 18.95361328 425.93017578 C65.77281863 420.36370149 106.83802252 397.92738706 139.32080078 364.39111328 C143.17388844 365.96635074 145.76823993 368.56858773 148.64013672 371.48339844 C149.15766006 372.00062973 149.67518341 372.51786102 150.20838928 373.05076599 C151.91210367 374.75586999 153.60863056 376.46794096 155.30517578 378.18017578 C156.48729485 379.36602628 157.66985723 380.55143502 158.85284424 381.73641968 C161.96108806 384.85228966 165.06327815 387.97411962 168.16424561 391.097229 C171.33128581 394.28474947 174.50401465 397.46659648 177.67626953 400.64892578 C183.89669481 406.89078304 190.11073615 413.13894814 196.32080078 419.39111328 C180.04832483 453.88089148 126.68088846 480.56976427 92.82470703 492.77783203 C64.09787077 502.80365001 35.77104861 507.95350916 5.33544922 507.78222656 C1.9551541 507.76615774 -1.42394009 507.78217479 -4.80419922 507.80126953 C-23.85561467 507.82062853 -42.85677457 506.40670986 -61.36669922 501.64111328 C-62.39303467 501.38434814 -63.41937012 501.12758301 -64.47680664 500.86303711 C-107.52685999 489.81561661 -145.6991202 468.14785488 -177.67919922 437.39111328 C-178.17049316 436.9217334 -178.66178711 436.45235352 -179.16796875 435.96875 C-185.89591024 429.51218766 -191.93025178 422.72528532 -197.67919922 415.39111328 C-198.46939453 414.41787109 -199.25958984 413.44462891 -200.07373047 412.44189453 C-242.92448822 358.65913244 -257.28732704 288.74305474 -250.85424805 221.36450195 C-246.06929938 179.64683837 -231.52928046 138.4579859 -206.67919922 104.39111328 C-206.08872803 103.57755371 -206.08872803 103.57755371 -205.48632812 102.74755859 C-193.3316345 86.15354334 -179.52220849 70.32504808 -163.37060547 57.52783203 C-161.60292419 56.12446243 -159.85937898 54.69003434 -158.14404297 53.22314453 C-114.45200687 15.98935811 -56.47381624 -0.28240529 0 0 Z " fill="#f4e7d7" transform="translate(251.67919921875,-0.39111328125)"/>
<path d="M0 0 C26.73 0 53.46 0 81 0 C85.5630328 5.21489462 89.91269743 10.35972324 94.0625 15.875 C95.19986237 17.37419768 96.33790618 18.87287859 97.4765625 20.37109375 C98.34716309 21.51747314 98.34716309 21.51747314 99.23535156 22.68701172 C102.1112237 26.45652094 105.02306198 30.19777415 107.9375 33.9375 C108.51830322 34.68306152 109.09910645 35.42862305 109.69750977 36.19677734 C110.87610547 37.70930036 112.05489793 39.22167008 113.23388672 40.73388672 C116.15887581 44.4869623 119.07924184 48.2436315 122 52 C125.54568599 56.55952048 129.09199898 61.11854842 132.640625 65.67578125 C138.57983564 73.30459492 144.50235967 80.94506643 150.390625 88.61328125 C155.89422945 95.76753773 161.45414885 102.87848858 167 110 C174.15392285 119.18646063 181.29932343 128.37836727 188.390625 137.61328125 C193.29394626 143.98721641 198.2448486 150.32446734 203.18554688 156.66943359 C206.70562453 161.19078199 210.22266224 165.71449524 213.74023438 170.23779297 C216.70599212 174.05126591 219.67255251 177.86410954 222.640625 181.67578125 C228.57983564 189.30459492 234.50235967 196.94506643 240.390625 204.61328125 C245.89422945 211.76753773 251.45414885 218.87848858 257 226 C264.15392285 235.18646063 271.29932343 244.37836727 278.390625 253.61328125 C283.29394626 259.98721641 288.2448486 266.32446734 293.18554688 272.66943359 C296.70562453 277.19078199 300.22266224 281.71449524 303.74023438 286.23779297 C306.70599212 290.05126591 309.67255251 293.86410954 312.640625 297.67578125 C318.57983564 305.30459492 324.50235967 312.94506643 330.390625 320.61328125 C335.89422945 327.76753773 341.45414885 334.87848858 347 342 C354.15392285 351.18646063 361.29932343 360.37836727 368.390625 369.61328125 C373.29394626 375.98721641 378.2448486 382.32446734 383.18554688 388.66943359 C386.70562453 393.19078199 390.22266224 397.71449524 393.74023438 402.23779297 C396.70599212 406.05126591 399.67255251 409.86410954 402.640625 413.67578125 C408.57983564 421.30459492 414.50235967 428.94506643 420.390625 436.61328125 C425.89422945 443.76753773 431.45414885 450.87848858 437 458 C441.13077235 463.30438731 445.25901663 468.61070612 449.38232422 473.92089844 C450.93935058 475.92205094 452.50223939 477.91848915 454.06640625 479.9140625 C454.98190014 481.08844088 455.89727285 482.26291373 456.8125 483.4375 C457.60269531 484.44683594 458.39289062 485.45617187 459.20703125 486.49609375 C461 489 461 489 462 492 C448.35255246 492.2785086 434.70578485 492.49149327 421.05607033 492.62174606 C414.71718331 492.68427506 408.38024556 492.76902581 402.04248047 492.90527344 C395.92148184 493.03603179 389.80235299 493.10748554 383.68006516 493.13852692 C381.34910015 493.16063532 379.01823327 493.20381247 376.68806839 493.26876068 C357.46164523 493.78315387 357.46164523 493.78315387 352.3956604 489.3943634 C349.76205617 486.55036723 347.87080824 483.39156289 346 480 C344.96384283 478.60059709 343.90976742 477.21379058 342.8203125 475.85546875 C341.91915149 474.63481848 341.02069543 473.41216646 340.125 472.1875 C336.20421376 466.89389835 332.20152488 461.68726633 328.0625 456.5625 C323.27379368 450.62975548 318.61181774 444.61149888 313.99414062 438.54492188 C308.30628013 431.0758097 302.53849006 423.66998711 296.76611328 416.26611328 C293.84112419 412.5130377 290.92075816 408.7563685 288 405 C284.45431401 400.44047952 280.90800102 395.88145158 277.359375 391.32421875 C271.42016436 383.69540508 265.49764033 376.05493357 259.609375 368.38671875 C254.10577055 361.23246227 248.54585115 354.12151142 243 347 C235.84607715 337.81353937 228.70067657 328.62163273 221.609375 319.38671875 C216.10577055 312.23246227 210.54585115 305.12151142 205 298 C197.84607715 288.81353937 190.70067657 279.62163273 183.609375 270.38671875 C178.10577055 263.23246227 172.54585115 256.12151142 167 249 C159.84607715 239.81353937 152.70067657 230.62163273 145.609375 221.38671875 C140.10577055 214.23246227 134.54585115 207.12151142 129 200 C121.85920096 190.83039185 114.72660062 181.6555729 107.6484375 172.4375 C104.32209761 168.11351863 100.97356387 163.80677894 97.625 159.5 C97.02945313 158.73365234 96.43390625 157.96730469 95.8203125 157.17773438 C95.253125 156.44876953 94.6859375 155.71980469 94.1015625 154.96875 C93.59963379 154.32357422 93.09770508 153.67839844 92.58056641 153.01367188 C90.73589161 150.66352085 88.86636832 148.3329604 87 146 C86.67 260.18 86.34 374.36 86 492 C57.62 492 29.24 492 0 492 C0 329.64 0 167.28 0 0 Z " fill="#f4e7d7" transform="translate(3016,8)"/>
<path d="M0 0 C38.65037415 -0.0918203 77.30073169 -0.16217248 115.95119308 -0.20426132 C120.52792773 -0.20926335 125.10466216 -0.21444072 129.68139648 -0.21972656 C130.59243284 -0.2207758 131.50346919 -0.22182505 132.44211271 -0.22290608 C147.13848702 -0.24024874 161.83479791 -0.27175205 176.53113476 -0.30861118 C191.64291701 -0.34619244 206.75466635 -0.3682719 221.8664934 -0.37635398 C231.16992574 -0.38180638 240.4731787 -0.39894246 249.77655574 -0.43166587 C256.1809194 -0.45302671 262.58519213 -0.45915209 268.98958872 -0.45400551 C272.66891522 -0.45147671 276.34793133 -0.45498037 280.0272007 -0.4768219 C333.65503405 -0.77871846 384.79948114 13.95055673 424 52 C451.47321003 79.38695191 465.12712363 117.34282752 465.24819946 155.69702148 C465.24879364 156.41575439 465.24938782 157.1344873 465.25 157.875 C465.25067474 158.60887939 465.25134949 159.34275879 465.25204468 160.09887695 C465.23523614 171.62418968 464.70848501 182.75818771 462 194 C461.83371094 194.70398926 461.66742187 195.40797852 461.49609375 196.13330078 C452.27061363 233.77838495 427.87702792 266.84388392 395.19921875 287.51953125 C378.31260279 297.74411926 360.21890551 303.91184303 341 308 C349.34523417 318.95138704 357.75072522 329.85332384 366.21630859 340.71191406 C369.22953417 344.57722341 372.24020532 348.44451873 375.25 352.3125 C375.83773193 353.06781006 376.42546387 353.82312012 377.03100586 354.60131836 C381.17004065 359.92409962 385.28408662 365.26538732 389.390625 370.61328125 C394.89422945 377.76753773 400.45414885 384.87848858 406 392 C413.14879829 401.17988011 420.28995283 410.36454382 427.375 419.59375 C430.56627975 423.74241368 433.784213 427.87032481 437 432 C441.81639795 438.18516062 446.6106948 444.38606946 451.3828125 450.60546875 C453.93033376 453.91764413 456.50228852 457.21053284 459.07373047 460.50415039 C464.39151985 467.31896451 469.67431215 474.15776031 474.875 481.0625 C475.39304199 481.74739502 475.91108398 482.43229004 476.44482422 483.13793945 C480 487.88000451 480 487.88000451 480 489 C466.74371964 489.27854327 453.48813973 489.49151011 440.22952461 489.62174606 C434.0722094 489.684268 427.91690186 489.76900414 421.76074219 489.90527344 C415.81480196 490.03605954 409.87078711 490.10749083 403.92351913 490.13852692 C401.65953131 490.16063059 399.3956442 490.20379873 397.13248062 490.26876068 C378.46250631 490.7831491 378.46250631 490.7831491 373.4359436 486.3943634 C370.80464967 483.54499851 368.89197555 480.38259626 367 477 C365.96285536 475.60132877 364.90858784 474.21473583 363.8203125 472.85546875 C362.91914656 471.63482212 362.02068751 470.41217226 361.125 469.1875 C357.14261148 463.8104326 353.07471437 458.52165728 348.875 453.3125 C344.82697767 448.29149544 340.83996706 443.23555586 336.92041016 438.11328125 C333.38607996 433.49542362 329.82213119 428.90117113 326.25 424.3125 C325.66009277 423.55453125 325.07018555 422.7965625 324.46240234 422.015625 C322.64188708 419.67686087 320.82100633 417.33838179 319 415 C311.84607715 405.81353937 304.70067657 396.62163273 297.609375 387.38671875 C292.70605374 381.01278359 287.7551514 374.67553266 282.81445312 368.33056641 C279.87486662 364.55482734 276.93752285 360.77734465 274 357 C272.83334461 355.49999123 271.66667793 353.99999124 270.5 352.5 C235.5 307.5 235.5 307.5 233.74926758 305.24902344 C232.58508741 303.75224357 231.4208623 302.25549866 230.2565918 300.75878906 C227.30150827 296.95980942 224.34725986 293.16018535 221.39453125 289.359375 C216.02985375 282.45537599 210.65959513 275.55638288 205.25 268.6875 C185 242.95752194 185 242.95752194 185 241 C186.25628708 240.99413376 187.51257416 240.98826752 188.80693054 240.98222351 C200.73530334 240.92462841 212.66350023 240.85168033 224.59169292 240.76428509 C230.72184076 240.71984846 236.8519262 240.68053595 242.98217773 240.65356445 C248.91513376 240.62726195 254.84784609 240.58667642 260.78064919 240.53681374 C263.02683253 240.52032499 265.27305784 240.50870021 267.51929283 240.50238609 C300.08436131 240.40172403 333.05472633 236.19906653 357.52734375 212.55859375 C371.26343123 197.95400157 377.42775116 179.61495697 377.3125 159.75 C377.30758545 158.74219482 377.3026709 157.73438965 377.29760742 156.69604492 C376.99248825 137.18875944 370.39511779 119.57936849 356.875 105.3125 C331.75317691 81.3185955 295.08234781 79.53987735 262.29736328 79.96679688 C260.10041838 79.98702558 257.9034621 80.00604766 255.70649719 80.02397156 C251.01902444 80.06295336 246.33163164 80.10680838 241.64422989 80.15351868 C234.22055997 80.22384798 226.79695147 80.26082455 219.37301636 80.28942871 C218.11401964 80.29434971 216.85502293 80.29927072 215.5578748 80.30434084 C211.68702191 80.31912396 207.81616751 80.33343971 203.9453125 80.34765625 C187.99191616 80.40648873 172.04025321 80.48878936 156.08789062 80.67529297 C144.40376536 80.81130703 132.72119078 80.88336699 121.03624713 80.88128519 C114.86853055 80.88261916 108.70479006 80.91582506 102.5379982 81.02720642 C96.7429605 81.13125067 90.95370622 81.15025586 85.15796471 81.10575294 C83.04148887 81.1042877 80.92472151 81.13328225 78.80917931 81.19615746 C63.32644716 81.63148022 63.32644716 81.63148022 57.82312536 77.27792168 C53.74636202 73.06387864 50.58295554 68.35952808 47.5231607 63.37870312 C44.95850955 59.37351594 41.96631167 55.71138506 39 52 C37.83138393 50.50151824 36.66448799 49.00169199 35.5 47.5 C34.9225 46.7575 34.345 46.015 33.75 45.25 C28.5 38.5 28.5 38.5 26.74755859 36.24682617 C25.58907508 34.75737049 24.43054695 33.26794952 23.27197266 31.77856445 C20.22972365 27.86753006 17.188413 23.95577063 14.1484375 20.04296875 C13.51679688 19.23021484 12.88515625 18.41746094 12.234375 17.58007812 C11.0283582 16.02821828 9.82261252 14.47614768 8.6171875 12.92382812 C8.070625 12.22064453 7.5240625 11.51746094 6.9609375 10.79296875 C6.45143555 10.13603027 5.94193359 9.4790918 5.41699219 8.80224609 C4.17153822 7.21817628 2.88929649 5.66317607 1.6015625 4.11328125 C0 2 0 2 0 0 Z " fill="#f4e7d7" transform="translate(3217,8)"/>
<path d="M0 0 C132 0 264 0 400 0 C400 26.73 400 53.46 400 81 C348.85 81 297.7 81 245 81 C245 216.3 245 351.6 245 491 C215.96 491 186.92 491 157 491 C157 355.7 157 220.4 157 81 C105.19 81 53.38 81 0 81 C0 54.27 0 27.54 0 0 Z " fill="#f4e7d7" transform="translate(3715,8)"/>
<path d="M0 0 C28.71 0 57.42 0 87 0 C87 135.96 87 271.92 87 412 C172.14 412 257.28 412 345 412 C345 438.07 345 464.14 345 491 C231.15 491 117.3 491 0 491 C0 328.97 0 166.94 0 0 Z " fill="#f4e7d7" transform="translate(4655,8)"/>
<path d="M0 0 C28.71 0 57.42 0 87 0 C87 135.96 87 271.92 87 412 C172.14 412 257.28 412 345 412 C345 438.07 345 464.14 345 491 C231.15 491 117.3 491 0 491 C0 328.97 0 166.94 0 0 Z " fill="#f4e7d7" transform="translate(1036,8)"/>
<path d="M0 0 C28.38 0 56.76 0 86 0 C86 135.96 86 271.92 86 412 C171.14 412 256.28 412 344 412 C344 438.07 344 464.14 344 491 C230.48 491 116.96 491 0 491 C0 328.97 0 166.94 0 0 Z " fill="#f4e7d7" transform="translate(1442,8)"/>
<path d="M0 0 C28.71 0 57.42 0 87 0 C87 162.03 87 324.06 87 491 C58.29 491 29.58 491 0 491 C0 328.97 0 166.94 0 0 Z " fill="#f4e7d7" transform="translate(1852,8)"/>
<path d="M0 0 C12 0 12 0 14.9375 2.24609375 C15.9584375 3.82583984 15.9584375 3.82583984 17 5.4375 C17.38607422 6.00428467 17.77214844 6.57106934 18.16992188 7.1550293 C19.01395982 8.3985852 19.84080675 9.65393976 20.65234375 10.91894531 C22.64709294 13.9992428 24.75809526 16.99441394 26.87109375 19.99438477 C27.94741716 21.52611301 29.01278133 23.06560762 30.06640625 24.61303711 C30.54980469 25.31436768 31.03320312 26.01569824 31.53125 26.73828125 C31.95986328 27.36774658 32.38847656 27.99721191 32.83007812 28.64575195 C33.21615234 29.09265381 33.60222656 29.53955566 34 30 C34.66 30 35.32 30 36 30 C37.48020528 28.37383696 37.48020528 28.37383696 38.9765625 26.23046875 C39.56074951 25.42843018 40.14493652 24.6263916 40.74682617 23.80004883 C41.36662354 22.93790771 41.9864209 22.0757666 42.625 21.1875 C43.57886597 19.89138794 43.57886597 19.89138794 44.55200195 18.5690918 C47.25997088 14.87678395 49.93422014 11.2016294 52.31640625 7.2890625 C52.93386719 6.30679687 53.55132812 5.32453125 54.1875 4.3125 C54.67605469 3.46300781 55.16460937 2.61351562 55.66796875 1.73828125 C58 0 58 0 69 0 C69 23.1 69 46.2 69 70 C65.37 70 61.74 70 58 70 C57.67 54.16 57.34 38.32 57 22 C54.40125 25.403125 51.8025 28.80625 49.125 32.3125 C48.30789551 33.38153564 47.49079102 34.45057129 46.64892578 35.55200195 C45.68188721 36.81983521 45.68188721 36.81983521 44.6953125 38.11328125 C44.03547363 38.97735596 43.37563477 39.84143066 42.69580078 40.73168945 C41.41136071 42.44976211 40.18990109 44.21514837 39 46 C35.51711642 46.85544509 34.28004589 47.13843517 31 46 C27.45656428 42.73202572 24.80153326 38.90594287 22 35 C19.03 31.04 16.06 27.08 13 23 C12.67 38.51 12.34 54.02 12 70 C8.04 70 4.08 70 0 70 C0 46.9 0 23.8 0 0 Z " fill="#f4e7d7" transform="translate(4931,8)"/>
<path d="M0 0 C19.47 0 38.94 0 59 0 C59 3.63 59 7.26 59 11 C51.08 11 43.16 11 35 11 C35 30.47 35 49.94 35 70 C31.37 70 27.74 70 24 70 C24 50.53 24 31.06 24 11 C16.08 11 8.16 11 0 11 C0 7.37 0 3.74 0 0 Z " fill="#f4e7d7" transform="translate(4860,8)"/>
</svg>
