<?xml version="1.0" encoding="UTF-8"?>
<svg version="1.1" xmlns="http://www.w3.org/2000/svg" width="4384" height="800">
<path d="M0 0 C66 0 132 0 200 0 C200 263.01 200 526.02 200 797 C2.66 797 -194.68 797 -398 797 C-398 731 -398 665 -398 597 C-266.66 597 -135.32 597 0 597 C0 399.99 0 202.98 0 0 Z " fill="#f4e7d7" transform="translate(400,0)"/>
<path d="M0 0 C66 0 132 0 200 0 C200 263.01 200 526.02 200 797 C134 797 68 797 0 797 C0 533.99 0 270.98 0 0 Z " fill="#f4e7d7" transform="translate(699,0)"/>
<path d="M0 0 C66 0 132 0 200 0 C200.08052313 74.6464871 200.08052313 74.6464871 200.1026001 97.75050354 C200.10338943 98.57448745 200.10417877 99.39847135 200.10499202 100.24742447 C200.13150499 127.99929221 200.15250239 155.75116128 200.16937256 183.5030365 C200.16992479 184.4091419 200.17047702 185.3152473 200.17104598 186.24881044 C200.18301916 205.94356041 200.19409967 225.63831078 200.20426132 245.33306176 C200.20925042 254.99214217 200.21443667 264.65122248 200.21972656 274.31030273 C200.2202496 275.27146881 200.22077263 276.23263489 200.22131152 277.22292722 C200.23833995 308.34584496 200.2683725 339.46873355 200.30518888 370.59163364 C200.34297112 402.58933382 200.36755379 434.58701788 200.37565996 466.58473998 C200.37681249 471.10996969 200.37811503 475.63519935 200.37950897 480.160429 C200.37991351 481.496301 200.37991351 481.496301 200.38032622 482.85916031 C200.38504285 497.16291363 200.40356734 511.46661693 200.42732814 525.7703499 C200.4509508 540.1699047 200.45985354 554.56941019 200.45400551 568.96898366 C200.45097608 577.51142561 200.45895796 586.0536863 200.48319017 594.59609533 C200.49830831 600.31959258 200.49857241 606.04297262 200.48732725 611.7664783 C200.48134982 615.01673641 200.48356801 618.26659093 200.49953273 621.51682473 C200.59250803 641.62974768 199.05456752 661.35497554 192.25 680.4375 C191.90710937 681.42991699 191.56421875 682.42233398 191.2109375 683.44482422 C188.39797824 691.36140529 185.05489904 698.86809676 180.98681641 706.21484375 C180.00226303 707.99590616 179.05264841 709.79258805 178.10546875 711.59375 C157.06903067 750.808561 118.33902086 778.03650399 76.4375 790.8125 C51.53726743 798.00322423 25.75527138 797 0 797 C0 533.99 0 270.98 0 0 Z " fill="#f4e7d7" transform="translate(997,0)"/>
<path d="M0 0 C14.85 0 29.7 0 45 0 C45.04523441 23.07964203 45.08204005 46.15924789 45.10362434 69.23892307 C45.11391491 79.95641739 45.1279326 90.67388211 45.15087891 101.39135742 C45.17088096 110.73816303 45.18373255 120.08494719 45.18817699 129.4317736 C45.19077287 134.37586909 45.19682758 139.31990323 45.21146011 144.26397896 C45.22515197 148.92851735 45.22919947 153.59296981 45.22621536 158.2575264 C45.22676038 159.95892874 45.2306681 161.66033432 45.23841095 163.36171913 C45.29603168 176.6898856 44.72747608 189.91418548 40.75 202.75 C40.53166504 203.46115967 40.31333008 204.17231934 40.08837891 204.9050293 C35.19109418 220.19128144 25.08634003 233.0631347 11 241 C-3.25710307 248.1678273 -18.22417945 250.15425958 -33.97257996 250.14044189 C-35.04436613 250.14341302 -36.1161523 250.14638414 -37.22041684 250.1494453 C-40.79433215 250.15808311 -44.36821377 250.15963636 -47.94213867 250.16113281 C-50.51185171 250.16576442 -53.08156407 250.17078954 -55.65127563 250.17617798 C-62.62046698 250.18971069 -69.58965253 250.19577783 -76.55885482 250.20018864 C-80.91677899 250.20295913 -85.27470098 250.20719787 -89.63262367 250.21169281 C-101.71729359 250.22387788 -113.80196176 250.23417933 -125.88663769 250.2375679 C-126.65878149 250.23778747 -127.43092529 250.23800703 -128.22646739 250.23823325 C-129.38732037 250.23856067 -129.38732037 250.23856067 -130.57162493 250.2388947 C-132.13962821 250.23933815 -133.70763149 250.23978472 -135.27563477 250.24023438 C-136.4422895 250.24056652 -136.4422895 250.24056652 -137.63251302 250.24090537 C-150.22900302 250.24485161 -162.8254351 250.26230373 -175.42190274 250.2855939 C-188.37897975 250.30935596 -201.33602775 250.32177192 -214.29312688 250.32293582 C-221.55822968 250.32384975 -228.82325696 250.3295308 -236.08833885 250.34775543 C-242.92478696 250.36484552 -249.76108997 250.36637293 -256.59755325 250.35761642 C-259.09921083 250.35684814 -261.60087622 250.36116106 -264.10251427 250.37107468 C-294.88213653 250.48584653 -294.88213653 250.48584653 -308.25 243.3125 C-309.24930542 242.79357178 -309.24930542 242.79357178 -310.26879883 242.26416016 C-318.35408769 237.931252 -325.63270701 232.51421018 -331 225 C-331 224.34 -331 223.68 -331 223 C-333.58401549 225.48065487 -335.93531058 228.08466235 -338.25 230.8125 C-349.67689005 243.80968149 -363.02342249 248.62160702 -380 250 C-406.31083786 251.15846391 -427.54442149 248.38967803 -449 232 C-449.82177734 232.63615234 -449.82177734 232.63615234 -450.66015625 233.28515625 C-464.1478076 243.26382513 -479.1699506 249.01526307 -496 250 C-497.15242188 250.07927734 -497.15242188 250.07927734 -498.328125 250.16015625 C-522.71227946 251.02033348 -542.94144711 242.34268558 -561.0546875 226.55078125 C-563.65539142 224.29844748 -566.29790955 222.12876868 -569 220 C-569.74443359 221.2684375 -569.74443359 221.2684375 -570.50390625 222.5625 C-578.2437106 235.58066645 -584.94064509 243.06361944 -599.6875 248.3125 C-608.72811828 250.18885474 -617.80019275 250.2418896 -627 250.25 C-627.68808746 250.25067474 -628.37617493 250.25134949 -629.08511353 250.25204468 C-651.02110359 250.21789884 -671.30467643 246.23850609 -688.10546875 231.01171875 C-691.54876925 227.35543059 -694.2871731 223.21335927 -697 219 C-697.84820313 219.51949219 -698.69640625 220.03898438 -699.5703125 220.57421875 C-721.09212774 233.47863474 -746.27014312 238.22800522 -771.1315918 232.81958008 C-774.14772443 232.02750681 -777.06908257 231.0626312 -780 230 C-781.06734375 229.62617188 -782.1346875 229.25234375 -783.234375 228.8671875 C-802.70685048 221.40438598 -817.14682544 207.50241771 -825.74511719 188.58569336 C-834.53311767 168.17747837 -834.48320104 144.37579874 -826.375 123.8125 C-823.16455869 116.77972634 -818.98770828 110.88051664 -814 105 C-813.38511719 104.27167969 -812.77023438 103.54335937 -812.13671875 102.79296875 C-800.11209206 89.73839545 -782.81086756 81.96455677 -765.24462891 80.82055664 C-754.38138489 80.54275172 -743.71873799 82.07706131 -732.97314453 83.50854492 C-729.71637597 83.94197488 -726.4580445 84.36164249 -723.19921875 84.77929688 C-721.12750156 85.04869127 -719.05588295 85.31884511 -716.984375 85.58984375 C-716.01054871 85.71592514 -715.03672241 85.84200653 -714.03338623 85.97190857 C-713.13774963 86.09195755 -712.24211304 86.21200653 -711.31933594 86.33569336 C-710.13691315 86.49224648 -710.13691315 86.49224648 -708.93060303 86.65196228 C-707 87 -707 87 -705 88 C-705 82.72 -705 77.44 -705 72 C-691.47 72 -677.94 72 -664 72 C-663.97812622 76.71446411 -663.97812622 76.71446411 -663.95581055 81.52416992 C-663.90531841 91.94570829 -663.83869784 102.36709953 -663.76428509 112.78849316 C-663.71968873 119.102716 -663.68040907 125.41687592 -663.65356445 131.73120117 C-663.62742429 137.83270023 -663.58694656 143.9339557 -663.53681374 150.03530312 C-663.52021726 152.35508491 -663.50865829 154.67490876 -663.50238609 156.99474144 C-663.97681062 180.44220875 -663.97681062 180.44220875 -654 201 C-644.03315293 208.91097928 -633.29459166 209.77829265 -621 209 C-613.29465116 207.70735957 -605.81321479 204.61927823 -600.94140625 198.3515625 C-598.75394584 194.5752224 -597.45917395 190.86497231 -596.3125 186.6875 C-596.06757813 185.8106958 -595.82265625 184.9338916 -595.5703125 184.03051758 C-589.03812749 159.81961112 -584.16501002 135.06072299 -579.76367188 110.38354492 C-579.43206055 108.53853394 -579.43206055 108.53853394 -579.09375 106.65625 C-578.81047852 105.04459961 -578.81047852 105.04459961 -578.52148438 103.40039062 C-578 101 -578 101 -577 100 C-574.07128846 99.88335272 -571.1658609 99.83196763 -568.23608398 99.82299805 C-567.3155423 99.81642685 -566.39500061 99.80985565 -565.44656372 99.80308533 C-562.37973962 99.78327543 -559.31296499 99.77166404 -556.24609375 99.76171875 C-554.67218715 99.75560546 -554.67218715 99.75560546 -553.06648445 99.74936867 C-547.49785685 99.7284613 -541.92925413 99.71418779 -536.3605957 99.70483398 C-530.64154453 99.69384434 -524.92289056 99.6595451 -519.20397854 99.61966228 C-514.78289641 99.59332442 -510.36190568 99.58512633 -505.94075203 99.58155251 C-503.83551456 99.57671966 -501.73028024 99.56520158 -499.62512016 99.54651451 C-476.26726047 99.35229809 -458.42945789 103.59580434 -441 120 C-426.93615221 134.59184208 -421.54538386 153.03991428 -421.63696289 172.8359375 C-421.7482829 177.63527391 -422.33401137 181.94902496 -423.5 186.625 C-424.20758728 190.14798736 -424.24099575 191.51181146 -422.6328125 194.76953125 C-417.03398205 202.2092223 -410.21741709 207.23365967 -401 209 C-397.39184533 209.32466598 -393.80868204 209.37006315 -390.1875 209.375 C-389.25357422 209.39949219 -388.31964844 209.42398438 -387.35742188 209.44921875 C-378.44319356 209.48633559 -369.85194582 206.89586036 -363 201 C-357.89291759 193.55987715 -355.70603911 186.44028646 -355.68115234 177.42431641 C-355.67110672 176.58463318 -355.6610611 175.74494995 -355.65071106 174.87982178 C-355.61996336 172.12040861 -355.6028674 169.3610921 -355.5859375 166.6015625 C-355.56721908 164.68198825 -355.54764516 162.76242218 -355.5272522 160.84286499 C-355.47599623 155.80251895 -355.43633552 150.76214626 -355.39910889 145.72167969 C-355.3519753 139.66757872 -355.29040547 133.61360935 -355.23126221 127.55961609 C-355.14312963 118.3731307 -355.07330816 109.18666952 -355 100 C-339.16 100 -323.32 100 -307 100 C-307.05220703 108.31058594 -307.05220703 108.31058594 -307.10546875 116.7890625 C-307.12082013 120.32553155 -307.13526359 123.86195879 -307.14648438 127.3984375 C-307.16433028 132.99618191 -307.18530693 138.59377736 -307.22631836 144.19140625 C-307.25921755 148.71073399 -307.27691656 153.22990169 -307.28463173 157.74934006 C-307.29012096 159.46268605 -307.30083782 161.17602455 -307.31719017 162.8893013 C-307.59250555 182.54802823 -307.59250555 182.54802823 -299.8046875 200.1640625 C-294.6133061 205.44533795 -287.0204533 208.70154739 -279.68484688 209.24609566 C-277.86799291 209.24333028 -277.86799291 209.24333028 -276.01443481 209.24050903 C-275.33552213 209.24221788 -274.65660944 209.24392673 -273.95712364 209.24568737 C-271.69542748 209.24896637 -269.43403184 209.2380051 -267.17236328 209.22705078 C-265.54588325 209.22648632 -263.91940271 209.2268039 -262.29292297 209.22793579 C-257.88634919 209.22850895 -253.47988457 209.21676054 -249.07333612 209.20278788 C-244.46490185 209.19027444 -239.856465 209.18910953 -235.24801636 209.18673706 C-226.52523933 209.1805241 -217.80251251 209.16411575 -209.07975757 209.14403808 C-199.14752908 209.12167338 -189.21529818 209.11068421 -179.28305078 209.10064721 C-158.85533917 209.07974938 -138.42767275 209.04457695 -118 209 C-118.31532338 208.34415389 -118.63064676 207.68830778 -118.9555254 207.01258755 C-120.40053418 204.00507043 -121.84346963 200.99656297 -123.28637695 197.98803711 C-124.03039135 196.44069004 -124.03039135 196.44069004 -124.78943634 194.86208344 C-128.4729154 187.1764555 -131.91509345 179.43248797 -135.1875 171.5625 C-146.00269572 143.01414753 -146.00269572 143.01414753 -167.6875 123.125 C-172.50232839 121.48977526 -176.81317471 120.87213023 -181.8918457 120.79467773 C-183.05267166 120.77473251 -184.21349762 120.75478729 -185.40950012 120.73423767 C-186.65237289 120.71752518 -187.89524567 120.70081268 -189.17578125 120.68359375 C-191.09622505 120.6524221 -191.09622505 120.6524221 -193.0554657 120.62062073 C-196.44689729 120.56562428 -199.83838735 120.51611688 -203.22991943 120.46777344 C-206.6956497 120.41739384 -210.16129689 120.36184416 -213.62695312 120.30664062 C-220.41790442 120.19884775 -227.2089048 120.09965079 -234 120 C-234 106.8 -234 93.6 -234 80 C-226.21176042 79.95373323 -218.42401042 79.91401539 -210.63574219 79.89013672 C-207.99405814 79.88131105 -205.35260023 79.86658718 -202.7109375 79.84912109 C-145.48043064 79.48059131 -145.48043064 79.48059131 -125.3359375 98.671875 C-124.17964844 99.82429688 -124.17964844 99.82429688 -123 101 C-122.31164063 101.66515625 -121.62328125 102.3303125 -120.9140625 103.015625 C-114.42812139 109.73229129 -110.24073611 117.76582355 -106 126 C-105.68627441 126.60682617 -105.37254883 127.21365234 -105.04931641 127.83886719 C-100.49464087 136.79090621 -96.72750866 146.06231337 -92.95605469 155.36230469 C-86.28216978 171.97826077 -86.28216978 171.97826077 -78.5625 188.125 C-78.19850098 188.83253418 -77.83450195 189.54006836 -77.45947266 190.26904297 C-72.74786199 198.94070598 -66.87739224 205.56956221 -57.28051758 208.53051758 C-51.93721992 209.63052415 -46.30828464 209.22852457 -40.875 209.25 C-39.59367187 209.270625 -38.31234375 209.29125 -36.9921875 209.3125 C-26.87093712 209.35398053 -17.83184709 208.43986743 -9.75390625 201.86328125 C-2.79205563 194.46728405 -0.6937309 183.9677316 -0.7215271 174.12854004 C-0.7157347 173.37849811 -0.7099423 172.62845618 -0.70397437 171.85568571 C-0.6870927 169.36533427 -0.68410817 166.87516947 -0.68115234 164.38476562 C-0.67184598 162.59050041 -0.66167626 160.79623949 -0.65071106 159.00198364 C-0.62347685 154.14724941 -0.60828118 149.29254409 -0.59528303 144.43775368 C-0.57962366 139.35816772 -0.5528424 134.27864056 -0.5272522 129.19909668 C-0.48051406 119.58749174 -0.44374592 109.97587568 -0.41057932 100.36421537 C-0.37232284 89.41861525 -0.32292191 78.47307424 -0.27259517 67.52752399 C-0.16934914 45.0183876 -0.08153595 22.50922623 0 0 Z M-787 138 C-792.7856381 145.97741187 -792.69577668 154.50071554 -792 164 C-789.9534102 172.53116508 -785.62763198 178.52744797 -778.1875 183.1875 C-763.49127677 191.54160308 -747.56504828 191.63950932 -731.3828125 187.98046875 C-720.69999219 184.88417787 -713.25387298 179.54481974 -707.39453125 170.0859375 C-703.40143913 161.24968323 -702.58497522 152.91619341 -702.8125 143.3125 C-702.84702205 141.29453307 -702.88039375 139.27654626 -702.9128418 137.25854492 C-702.92929245 136.26602219 -702.9457431 135.27349945 -702.96269226 134.25090027 C-702.97500381 133.50810318 -702.98731537 132.76530609 -703 132 C-709.41706681 131.13167961 -715.83608497 130.2790269 -722.2565918 129.43652344 C-724.43413813 129.14899276 -726.61123861 128.85806187 -728.7878418 128.56347656 C-760.45067376 123.29839872 -760.45067376 123.29839872 -787 138 Z M-546 141 C-549.70281852 155.87739585 -552.79186859 169.40938204 -546 184 C-537.79194597 196.11983538 -525.69496969 201.58121101 -511.8046875 204.72265625 C-498.43517609 207.15494086 -485.15211249 206.12928125 -473.6875 198.3125 C-467.63927605 193.39443699 -463.26564649 186.7204436 -462 179 C-461.18996326 169.92314994 -461.43614493 162.48780496 -467 155 C-474.05572956 146.9998027 -482.86616427 142.66959239 -493.49414062 141.79467773 C-496.49596013 141.66941839 -499.49752246 141.54618192 -502.5 141.4375 C-503.62390137 141.3950415 -504.74780273 141.35258301 -505.90576172 141.30883789 C-519.26945589 140.85273598 -532.63029119 140.90568363 -546 141 Z " fill="#f4e7d7" transform="translate(3485,99)"/>
<path d="M0 0 C66 0 132 0 200 0 C200 24.75 200 49.5 200 75 C183.5 75 167 75 150 75 C150 91.17 150 107.34 150 124 C166.5 124 183 124 200 124 C200 149.08 200 174.16 200 200 C134 200 68 200 0 200 C0 134 0 68 0 0 Z " fill="#f4e7d7" transform="translate(102,199)"/>
<path d="M0 0 C14.52 0 29.04 0 44 0 C44 36.3 44 72.6 44 110 C65.88990286 110.70371221 65.88990286 110.70371221 85.65625 101.75 C92.0174502 93.46564625 94.12784726 85.01858217 94.20532227 74.81323242 C94.21522186 74.00295593 94.22512146 73.19267944 94.23532104 72.35784912 C94.26680619 69.69041831 94.29164193 67.02296971 94.31640625 64.35546875 C94.336987 62.50172982 94.35798377 60.64799546 94.37937927 58.79426575 C94.43448417 53.92322503 94.48394439 49.05214276 94.53222656 44.18103027 C94.5913752 38.33223187 94.65753927 32.48350913 94.72252655 26.63477325 C94.82039029 17.75656184 94.90934605 8.87830115 95 0 C109.85 0 124.7 0 140 0 C140.02578125 6.39246094 140.0515625 12.78492188 140.078125 19.37109375 C140.1033048 23.4316802 140.12964647 27.49219301 140.16015625 31.55273438 C140.2084249 37.99145749 140.2524946 44.43001005 140.27099609 50.86889648 C140.28618995 56.06272147 140.32068426 61.25609891 140.36830902 66.4497242 C140.38309463 68.4267086 140.39103939 70.40375692 140.39188385 72.38079643 C140.39426375 75.15986173 140.42142529 77.9377004 140.45410156 80.71655273 C140.4490712 81.52576172 140.44404083 82.3349707 140.43885803 83.16870117 C140.56733363 90.27587064 143.04801149 95.69663482 146.625 101.75 C152.10256117 106.93926848 157.96543903 109.31365451 165.5 109.625 C172.78755279 109.29881978 178.72675848 107.37531766 183.87890625 102.0625 C188.97108491 95.58377631 190.29784991 90.17532544 190.31884766 82.07885742 C190.32889328 81.19055237 190.3389389 80.30224731 190.34928894 79.38702393 C190.38010401 76.45984526 190.39715149 73.532758 190.4140625 70.60546875 C190.43277549 68.57236445 190.452349 66.5392679 190.4727478 64.50617981 C190.52406113 59.16167779 190.56369123 53.81715059 190.60089111 48.47253418 C190.64797943 42.05636404 190.70957391 35.64031876 190.76873779 29.22425079 C190.85694031 19.48288428 190.92671182 9.74154158 191 0 C205.85 0 220.7 0 236 0 C236.12032643 18.45450883 236.12032643 18.45450883 236.14648438 26.44335938 C236.16427883 31.85189873 236.18511113 37.26028288 236.22631836 42.66870117 C236.25939943 47.03892378 236.2769533 51.40897951 236.28463173 55.77931786 C236.29008931 57.42991951 236.30074003 59.08051415 236.31719017 60.73104286 C236.56599691 86.77927467 232.02972748 113.33171579 213.33984375 132.8203125 C199.02850618 146.15207605 180.39520132 150.91983224 161.19921875 150.27734375 C144.35381103 149.34385484 130.75122804 143.78728369 119.20703125 131.55078125 C117.36646068 129.42353774 115.64114832 127.28263952 114 125 C113.46632813 125.64066406 112.93265625 126.28132813 112.3828125 126.94140625 C100.95680795 140.20585098 86.68314358 148.5305982 69 150 C60.00269272 150.32630659 50.99917822 150.19122151 42 150 C41.83169678 150.93070313 41.66339355 151.86140625 41.48999023 152.8203125 C37.52464498 174.12833684 26.04136606 193.00498585 8.8125 206.25 C-18.70067635 225.08926483 -53.11766906 228.85410019 -85.44921875 222.97265625 C-101.04693782 219.80595578 -115.90155609 213.42725808 -128 203 C-128.66257812 202.48050781 -129.32515625 201.96101562 -130.0078125 201.42578125 C-145.35229892 188.99975597 -153.70795249 169.83630131 -158 151 C-158.1745874 150.23627075 -158.3491748 149.4725415 -158.52905273 148.68566895 C-160.52305192 138.54818455 -160.25211994 128.4236977 -160.1953125 118.140625 C-160.19157544 116.13995506 -160.18873175 114.13928327 -160.18673706 112.13861084 C-160.17915516 106.91083592 -160.15955431 101.68317477 -160.1373291 96.45544434 C-160.11312525 90.1626826 -160.10406374 83.86988251 -160.09242249 77.5770874 C-160.07312607 68.05131284 -160.03476565 58.52578717 -160 49 C-145.15 49 -130.3 49 -115 49 C-114.96261719 55.03410156 -114.92523437 61.06820312 -114.88671875 67.28515625 C-114.8563988 71.13609482 -114.82522468 74.98698941 -114.79101562 78.83789062 C-114.73694465 84.93365094 -114.68582647 91.02932428 -114.65356445 97.12524414 C-114.62731855 102.04671977 -114.58677028 106.96789877 -114.53681374 111.88918877 C-114.52028756 113.75515454 -114.50868551 115.62117146 -114.50238609 117.48719978 C-114.42818563 137.46947258 -112.64673008 155.93258867 -98.12109375 170.94140625 C-88.22964183 180.19341077 -75.34439758 184.22920447 -62 185 C-61.30648437 185.04125 -60.61296875 185.0825 -59.8984375 185.125 C-43.57589181 185.59983769 -28.33067184 180.92663683 -16.3125 169.75 C2.28714299 149.98787933 -0.69693706 118.43418238 -0.5859375 93.359375 C-0.56822089 90.65267543 -0.5476986 87.94599899 -0.5272522 85.23931885 C-0.4809432 78.90055889 -0.44397172 72.56178233 -0.41057932 66.22294259 C-0.37201386 58.99160873 -0.32269723 51.76035973 -0.27259517 44.52909803 C-0.16998982 29.68612297 -0.08192148 14.84310635 0 0 Z " fill="#f4e7d7" transform="translate(3941,199)"/>
<path d="M0 0 C8.58 0 17.16 0 26 0 C25.99333817 3.42990829 25.99333817 3.42990829 25.98654175 6.92910767 C25.94561154 28.49861137 25.91588017 50.06810994 25.89637566 71.63764381 C25.88608128 82.72621829 25.87205622 93.81476418 25.84912109 104.90332031 C25.8291308 114.57276853 25.81627021 124.24219605 25.81182301 133.91166437 C25.80922516 139.02731349 25.80315767 144.14290341 25.78853989 149.25853348 C25.77486672 154.0831193 25.77079685 158.90762206 25.77378464 163.73222542 C25.7732388 165.49371226 25.76931978 167.25520217 25.76158905 169.01667213 C25.68905137 186.41217012 25.6911253 205.77895691 38.6328125 219.0625 C50.30028878 228.61211755 63.37502097 229.30042038 77.75390625 229.1953125 C79.265618 229.19157551 80.77733219 229.18873179 82.28904724 229.18673706 C86.23950054 229.17915453 90.18980332 229.15955326 94.14019775 229.1373291 C98.18263718 229.11675378 102.22510127 229.10771052 106.26757812 229.09765625 C114.17845396 229.07630147 122.08920818 229.04223175 130 229 C129.4451593 228.31460648 128.8903186 227.62921295 128.31866455 226.92304993 C127.59378845 226.02329941 126.86891235 225.12354889 126.12207031 224.1965332 C125.40222961 223.30488968 124.68238892 222.41324615 123.94073486 221.49458313 C110.65986783 204.42361301 109.27082331 181.39813054 111.21826172 160.67773438 C111.78258845 156.66694829 112.77734154 152.85531821 114 149 C114.3403125 147.90945312 114.680625 146.81890625 115.03125 145.6953125 C120.84675365 128.99538649 131.84215011 115.88371764 147.4609375 107.69140625 C164.74106054 99.4328044 185.02417107 98.31534773 203.38671875 103.6796875 C221.98746896 110.47650217 232.90721204 122.59682791 241.73828125 139.84765625 C248.62356864 157.05021639 244.80805336 175.86287534 240.75 193.25 C240.34836727 195.0464528 239.94862361 196.84332899 239.55078125 198.640625 C237.20493151 209.14033798 234.61042112 219.55831553 232 230 C288.925 229.505 288.925 229.505 347 229 C344.36 226.36 341.72 223.72 339 221 C324.92592687 203.29528585 318.54529546 182.58702532 320 160 C322.58329492 139.41500424 331.87122604 122.37740717 347.5625 108.875 C369.33785997 92.17154065 397.09883109 88.59494987 423.6875 91.875 C428.98855591 92.58031472 433.75028257 93.68757064 439 95 C437.35 103.25 435.7 111.5 434 120 C425 118 425 118 422.26538086 117.38769531 C404.3481201 114.32135087 382.96464167 116.71478368 367.5 126.59765625 C356.97837666 134.40000869 348.56662662 145.28326014 346.24609375 158.46484375 C344.56353644 175.79785473 348.16072348 190.28071199 358.75 204.25 C374.46519879 222.82792949 397.86155201 227.01470873 421 229 C429.58894113 229.43908959 438.18275605 229.4340208 446.78076172 229.39111328 C450.65497239 229.37487437 454.52816234 229.39113887 458.40234375 229.41015625 C460.90625226 229.40817599 463.41016015 229.40433683 465.9140625 229.3984375 C467.62065536 229.40754654 467.62065536 229.40754654 469.36172485 229.4168396 C479.78233062 229.32637476 490.05323536 227.62090213 499 222 C499.59296875 221.63777344 500.1859375 221.27554688 500.796875 220.90234375 C508.7433024 215.1534903 512.79908736 204.60700044 514.58593369 195.24318314 C515.51603462 187.95814796 515.31057048 180.57281877 515.31884766 173.23974609 C515.32815732 171.34666521 515.33832752 169.4535884 515.34928894 167.56051636 C515.376486 162.44557777 515.39170772 157.33066658 515.40471697 152.21567488 C515.42039272 146.86116887 515.4471687 141.50671841 515.4727478 136.1522522 C515.51945708 126.02363955 515.55623913 115.89501636 515.58942068 105.76635134 C515.62769763 94.23063339 515.67709315 82.69497133 515.72740483 71.15930057 C515.83060789 47.43957441 515.91951163 23.71981317 516 0 C524.25 0 532.5 0 541 0 C541.06959314 24.88772554 541.12305858 49.77542746 541.15543652 74.6632309 C541.17087302 86.22034528 541.19190076 97.77739792 541.22631836 109.33447266 C541.25631949 119.41339013 541.27559835 129.49226285 541.28226548 139.57122374 C541.28615965 144.90270755 541.29524378 150.23406338 541.31719017 155.56550598 C541.33772494 160.59531728 541.34379985 165.62494927 541.33932304 170.65479851 C541.34014071 172.48962825 541.34600425 174.32446471 541.35761642 176.15925789 C541.48645048 197.58747713 538.5228912 217.93124357 523.25 234.1875 C507.62570196 249.0720112 486.84920453 250.31106272 466.378479 250.26069641 C464.62220846 250.26372213 462.86593923 250.26761371 461.10967231 250.27228898 C456.31477087 250.28252362 451.51994457 250.28039877 446.7250371 250.27610838 C441.54151648 250.27363287 436.35801357 250.28266557 431.17449951 250.29014587 C421.0311605 250.30287226 410.88784799 250.30468912 400.74450234 250.30234561 C392.49600383 250.30055989 384.24751335 250.30231753 375.99901581 250.30657005 C374.82338158 250.30716524 373.64774735 250.30776043 372.43648784 250.30837366 C370.04788321 250.30958546 367.65927859 250.31079959 365.27067396 250.31201603 C342.88760042 250.32288375 320.50454195 250.32073279 298.12146756 250.31463119 C277.66720339 250.30946339 257.21298686 250.32071523 236.75873211 250.33972941 C215.73209322 250.35912508 194.70547685 250.36736073 173.67882895 250.36360615 C161.88371192 250.36169665 150.08863542 250.36415716 138.2935257 250.37832069 C128.25150254 250.39025755 118.20954488 250.3916136 108.16752079 250.37953053 C103.04945838 250.37365788 97.93151562 250.37249756 92.8134613 250.38453293 C88.11787441 250.395446 83.42250629 250.39222443 78.7269294 250.37827124 C77.03860147 250.37563915 75.35025609 250.37794341 73.66194537 250.38600711 C53.28771121 250.47647566 33.93121965 247.91460957 18 234 C3.76187734 219.32378126 0.9015221 200.32866439 0.40063477 180.78320312 C0.38134198 180.09878427 0.3620492 179.41436541 0.34217179 178.70920658 C-0.1431294 161.42216142 -0.13035842 144.13333307 -0.10139394 126.84095192 C-0.09500411 122.35812165 -0.09454458 117.87529017 -0.09336853 113.39245605 C-0.09030011 104.9609735 -0.08214942 96.52950441 -0.07201904 88.09802771 C-0.0607157 78.47473782 -0.05531219 68.85144718 -0.05032361 59.22815228 C-0.03996126 39.48542722 -0.02224278 19.74271495 0 0 Z M152.48828125 129.90234375 C142.42072738 139.08108132 136.9403012 152.68339068 135.71630859 166.11254883 C135.60049855 169.2475514 135.58993039 172.36321798 135.625 175.5 C135.61339844 176.53769531 135.60179687 177.57539063 135.58984375 178.64453125 C135.64405897 193.15613784 139.71424393 206.2998389 149.77734375 216.96484375 C159.68999016 226.04127394 173.22599766 230.16082858 186.4921875 230.09765625 C187.69101563 230.09443359 188.88984375 230.09121094 190.125 230.08789062 C191.3625 230.07951172 192.6 230.07113281 193.875 230.0625 C195.13570312 230.05798828 196.39640625 230.05347656 197.6953125 230.04882812 C200.79692386 230.0370796 203.89843725 230.02065167 207 230 C209.21674114 220.71084612 211.38875985 211.41211702 213.51849365 202.10266113 C213.83328877 200.72800123 214.14904458 199.35356088 214.46588135 197.97937012 C222.21832789 166.92272288 222.21832789 166.92272288 213.25 137.1875 C206.06777449 127.25118802 197.60275033 122.55454641 185.625 120.625 C173.04871978 119.24574694 162.64318354 122.21115026 152.48828125 129.90234375 Z " fill="#f4e7d7" transform="translate(1882,99)"/>
<path d="M0 0 C144.55852843 0 144.55852843 0 169 24 C169.71285156 24.68835938 170.42570312 25.37671875 171.16015625 26.0859375 C185.62808132 41.08351686 189.34873456 62.03179709 189.1484375 82.1015625 C188.37490403 102.41699421 181.22275471 121.27629068 167 136 C160.27701689 141.8429165 153.14593633 146.41362538 145 150 C146.29723147 154.17846305 147.87814118 157.95008446 149.90625 161.82421875 C150.47980225 162.92491699 151.05335449 164.02561523 151.64428711 165.15966797 C152.25667236 166.32385254 152.86905762 167.48803711 153.5 168.6875 C154.1404293 169.91272778 154.78048079 171.13815311 155.42016602 172.36376953 C159.29276203 179.77640005 163.19077289 187.17581732 167.09741211 194.57055664 C171.29498554 202.5285447 175.4171714 210.52557831 179.54077148 218.52206421 C183.81145113 226.80370183 188.10715465 235.07018524 192.56274414 243.25439453 C195 247.78473872 195 247.78473872 195 250 C176.52 250 158.04 250 139 250 C136.13054687 244.0290625 133.26109375 238.058125 130.3046875 231.90625 C128.45885342 228.11228151 126.61075086 224.3197935 124.75390625 220.53125 C121.81250479 214.5292965 118.88005955 208.52410049 116.00048828 202.4921875 C113.67590989 197.62428582 111.31174342 192.77750453 108.91992569 187.94230652 C108.0184217 186.10259746 107.13093048 184.25594732 106.25844955 182.40229797 C105.02469878 179.78764002 103.74140246 177.20309927 102.44482422 174.61914062 C101.93122849 173.48409088 101.93122849 173.48409088 101.40725708 172.32611084 C97.04831746 163.92983328 92.42771276 163.38726444 83 158 C72.11 157.67 61.22 157.34 50 157 C50 187.69 50 218.38 50 250 C33.5 250 17 250 0 250 C0 167.5 0 85 0 0 Z M50 39 C50 66.06 50 93.12 50 121 C58.9925 121.0825 67.985 121.165 77.25 121.25 C81.47151855 121.30462402 81.47151855 121.30462402 85.77832031 121.36035156 C88.04491415 121.3720497 90.31151649 121.38223885 92.578125 121.390625 C93.72587402 121.41108887 94.87362305 121.43155273 96.05615234 121.45263672 C108.8292125 121.45807438 118.67987548 117.97441022 127.90234375 109.1875 C136.80293088 99.85411477 138.51229521 88.70752587 138.2734375 76.21484375 C137.80275737 65.96007512 134.22675161 57.2857455 127 50 C119.1229386 42.83026656 110.05926857 38.86193272 99.38354492 38.88647461 C98.26749878 38.88659546 97.15145264 38.88671631 96.00158691 38.88684082 C94.25863342 38.89451477 94.25863342 38.89451477 92.48046875 38.90234375 C91.40430298 38.90335083 90.32813721 38.90435791 89.21936035 38.90539551 C85.20872936 38.91061787 81.19811358 38.92457914 77.1875 38.9375 C63.7296875 38.9684375 63.7296875 38.9684375 50 39 Z " fill="#f4e7d7" transform="translate(1395,547)"/>
<path d="M0 0 C16.17 0 32.34 0 49 0 C49 36.3 49 72.6 49 110 C56.02990458 108.99572792 57.36737252 108.42436778 61.25 103.3125 C61.95032349 102.43899902 61.95032349 102.43899902 62.66479492 101.54785156 C64.1289865 99.71276418 65.5657216 97.85852234 67 96 C67.8854419 94.87269384 68.77213054 93.74636566 69.66015625 92.62109375 C70.99867308 90.92222603 72.33459431 89.22161528 73.66308594 87.51489258 C77.35877154 82.77304967 81.16441206 78.1291041 85 73.5 C89.23650333 68.38530185 93.4208148 63.24109823 97.5 58 C102.23133321 51.92202265 107.10880475 45.97277719 112.01733398 40.03735352 C115.6773666 35.6107163 119.29891117 31.15817449 122.87109375 26.66015625 C124.6231112 24.47093812 126.38739136 22.29347221 128.16015625 20.12109375 C128.73048584 19.42185791 129.30081543 18.72262207 129.88842773 18.00219727 C131.01033721 16.6279252 132.13346223 15.25464416 133.25805664 13.88256836 C133.78391357 13.23811768 134.30977051 12.59366699 134.8515625 11.9296875 C135.31385254 11.36491699 135.77614258 10.80014648 136.25244141 10.21826172 C138.00970347 8.11528426 138.00970347 8.11528426 139.08883667 6.00067139 C141.16871968 2.53655703 142.64148467 0.35750075 146.6590271 -0.69973755 C150.00595214 -0.92693691 153.26456233 -0.89935597 156.6171875 -0.78125 C158.43562668 -0.76427063 158.43562668 -0.76427063 160.290802 -0.74694824 C164.1538248 -0.70224908 168.0131037 -0.60188178 171.875 -0.5 C174.49734215 -0.45986541 177.1197426 -0.42336464 179.7421875 -0.390625 C186.16273057 -0.30253394 192.58109785 -0.16875484 199 0 C197.14713242 3.13072946 195.29130885 6.02489057 192.9609375 8.8203125 C192.38496826 9.51495605 191.80899902 10.20959961 191.21557617 10.92529297 C190.60818604 11.65119629 190.0007959 12.37709961 189.375 13.125 C188.10794389 14.65093454 186.84101672 16.17697615 185.57421875 17.703125 C184.95981934 18.44111328 184.34541992 19.17910156 183.71240234 19.93945312 C181.52345564 22.57342948 179.35350374 25.22212462 177.1875 27.875 C176.49011719 28.72835937 175.79273437 29.58171875 175.07421875 30.4609375 C174.38972656 31.29882812 173.70523438 32.13671875 173 33 C171.50014304 34.83345036 170.0001406 36.66678171 168.5 38.5 C167.38625 39.86125 167.38625 39.86125 166.25 41.25 C155 55 143.75 68.75 132.5 82.5 C131.75878906 83.40621094 131.01757812 84.31242188 130.25390625 85.24609375 C128.74201773 87.09337522 127.22898251 88.93971875 125.71484375 90.78515625 C124.21328607 92.61638697 122.71578883 94.45095573 121.22265625 96.2890625 C119.70963656 98.13446789 118.1747513 99.96211261 116.62109375 101.7734375 C115.87988281 102.65257812 115.13867188 103.53171875 114.375 104.4375 C113.70210937 105.21996094 113.02921875 106.00242187 112.3359375 106.80859375 C110.83779209 108.83685253 110.83779209 108.83685253 111.00390625 110.859375 C112.50564252 114.08663568 114.5108072 116.91977671 116.5625 119.8125 C117.28626831 120.8487854 117.28626831 120.8487854 118.0246582 121.90600586 C119.09708508 123.44094303 120.1720109 124.97413632 121.24902344 126.50585938 C123.73952776 130.0534043 126.20967307 133.6149871 128.68188477 137.17529297 C130.72452281 140.11579663 132.77005428 143.05426741 134.81640625 145.9921875 C137.57608246 149.95443653 140.33397952 153.91791116 143.08984375 157.8828125 C149.37962694 166.93144568 155.67624759 175.97506593 162 185 C170.42702758 197.02662018 178.80628017 209.08641125 187.18603516 221.14599609 C188.64810112 223.25003928 190.11033825 225.35396353 191.57275391 227.45776367 C192.94392338 229.43030383 194.31471495 231.40310674 195.68505859 233.3762207 C196.30848145 234.27300537 196.9319043 235.16979004 197.57421875 236.09375 C198.15864746 236.93550781 198.74307617 237.77726563 199.34521484 238.64453125 C200.85568055 240.79457155 202.40125013 242.91394703 203.95703125 245.03125 C206 248 206 248 206 250 C198.53452152 250.42011476 191.07028406 250.73833499 183.59562397 250.93261909 C180.12220378 251.02598006 176.65694698 251.15202543 173.18823242 251.35791016 C150.91819986 252.64514236 150.91819986 252.64514236 144.51620483 248.32321167 C140.36312081 244.17522234 137.60623364 239.39156278 135.05703735 234.14050293 C133.76629931 231.5267556 132.1790953 229.23615247 130.44921875 226.89453125 C129.52641996 225.53536275 128.60579421 224.17471597 127.6875 222.8125 C120.88723749 212.80563522 113.97573617 202.87790541 107.05712891 192.95263672 C104.33122317 189.04009174 101.60984915 185.12440505 98.88842773 181.20874023 C96.24966757 177.41298277 93.60852584 173.61888701 90.96679688 169.82519531 C89.63414469 167.91091389 88.30213298 165.99618647 86.97070312 164.08105469 C85.02413562 161.28180393 83.07490419 158.48442713 81.125 155.6875 C80.5357373 154.83905518 79.94647461 153.99061035 79.33935547 153.11645508 C78.79682129 152.33939209 78.25428711 151.5623291 77.6953125 150.76171875 C77.22109863 150.08069092 76.74688477 149.39966309 76.25830078 148.69799805 C74.96839973 146.87032368 74.96839973 146.87032368 73 145 C66.72045972 151.80133589 60.99444375 158.97321732 55.33691406 166.29003906 C54 168 54 168 51.95056152 170.12962341 C49.53605822 173.68272013 49.42437289 176.48709503 49.45410156 180.63598633 C49.44376389 181.38774139 49.43342621 182.13949646 49.42277527 182.91403198 C49.39339079 185.38691817 49.39184908 187.85898434 49.390625 190.33203125 C49.37564034 192.05125994 49.35891258 193.77047424 49.34051514 195.4896698 C49.29686123 200.00565255 49.27684694 204.52144111 49.26177979 209.03759766 C49.23875693 214.46097126 49.18632953 219.88413095 49.13883972 225.3073349 C49.07005095 233.53827908 49.03858163 241.76860913 49 250 C32.83 250 16.66 250 0 250 C0 167.5 0 85 0 0 Z " fill="#f4e7d7" transform="translate(1908,547)"/>
<path d="M0 0 C19.8 0 39.6 0 60 0 C64.4996658 11.24916449 64.4996658 11.24916449 66.15966797 16.17602539 C66.72289513 17.84068344 66.72289513 17.84068344 67.29750061 19.53897095 C67.88887062 21.30052017 67.88887062 21.30052017 68.4921875 23.09765625 C69.13940908 25.01383703 69.78663161 26.93001748 70.43389606 28.84618378 C71.11546603 30.86560367 71.79568565 32.88547364 72.47549438 34.90548706 C73.89248527 39.11578106 75.31336345 43.32475626 76.73510742 47.53344727 C76.97191066 48.23447162 77.20871389 48.93549597 77.45269299 49.65776348 C77.92983798 51.07028018 78.40699269 52.48279361 78.88415718 53.89530373 C79.5967748 56.00520273 80.3090432 58.11521934 81.02122498 60.2252655 C84.76110489 71.30419764 88.5269693 82.37408578 92.3125 93.4375 C93.41288203 96.65490633 94.51309382 99.87237087 95.61328125 103.08984375 C95.88464905 103.88332718 96.15601685 104.67681061 96.43560791 105.49433899 C99.96787531 115.82587798 103.48297522 126.16326481 107 136.5 C111.7090428 150.33911526 116.42318417 164.17645869 121.14935303 178.00973511 C121.99330865 180.48041111 122.83682194 182.95123766 123.68017578 185.42211914 C124.24771249 187.0848012 124.81525815 188.74748021 125.3828125 190.41015625 C125.66689972 191.24241226 125.95098694 192.07466827 126.24368286 192.93214417 C128.25607789 198.82583535 130.27306331 204.71794446 132.29144287 210.60958862 C133.78923081 214.98356471 135.28449511 219.35840104 136.77929688 223.73339844 C137.50638776 225.85958846 138.2345678 227.98540635 138.96386719 230.11083984 C139.9760957 233.06122941 140.98456914 236.01287712 141.9921875 238.96484375 C142.45043411 240.29605507 142.45043411 240.29605507 142.91793823 241.65415955 C143.19364655 242.46430008 143.46935486 243.27444061 143.75341797 244.10913086 C143.99542938 244.81597519 144.2374408 245.52281952 144.48678589 246.25108337 C145 248 145 248 145 250 C127.84 250 110.68 250 93 250 C91.16634517 245.72147206 89.54248969 241.85856632 88.19067383 237.47949219 C87.71051567 235.93319122 87.71051567 235.93319122 87.22065735 234.35565186 C86.88616074 233.26375549 86.55166412 232.17185913 86.20703125 231.046875 C85.85613937 229.90970032 85.5052475 228.77252563 85.14372253 227.60089111 C84.40648419 225.20782296 83.67119515 222.81415352 82.93774414 220.41992188 C81.81152324 216.74681435 80.67666805 213.07645097 79.54101562 209.40625 C78.82500112 207.07828479 78.10948872 204.75016506 77.39453125 202.421875 C77.05396194 201.32188171 76.71339264 200.22188843 76.36250305 199.08856201 C76.0518541 198.07030334 75.74120514 197.05204468 75.42114258 196.00292969 C75.14595291 195.10693054 74.87076324 194.2109314 74.5872345 193.28778076 C74 191 74 191 74 188 C44.63 188 15.26 188 -15 188 C-15.66 190.97 -16.32 193.94 -17 197 C-17.53344561 198.93394716 -18.09068463 200.86161499 -18.67993164 202.77929688 C-18.99688492 203.81646851 -19.3138382 204.85364014 -19.64039612 205.92224121 C-19.97691696 207.01008911 -20.31343781 208.09793701 -20.66015625 209.21875 C-21.0100914 210.35783813 -21.36002655 211.49692627 -21.7205658 212.67053223 C-22.45595706 215.06115651 -23.19309213 217.451245 -23.93188477 219.84082031 C-25.06705545 223.51474347 -26.19501509 227.1908275 -27.32226562 230.8671875 C-28.03863502 233.19284005 -28.75541709 235.51836554 -29.47265625 237.84375 C-29.98047386 239.49981262 -29.98047386 239.49981262 -30.49855042 241.18933105 C-30.81235153 242.2012854 -31.12615265 243.21323975 -31.44946289 244.25585938 C-31.72544815 245.15026733 -32.00143341 246.04467529 -32.28578186 246.96618652 C-33 249 -33 249 -34 250 C-35.56547048 250.09326716 -37.13512772 250.11745582 -38.70336914 250.11352539 C-39.70433121 250.11344986 -40.70529327 250.11337433 -41.73658752 250.11329651 C-42.8251152 250.10813522 -43.91364288 250.10297394 -45.03515625 250.09765625 C-46.14354355 250.0962413 -47.25193085 250.09482635 -48.39390564 250.09336853 C-51.95013069 250.08775033 -55.50629383 250.07519475 -59.0625 250.0625 C-61.46679597 250.05748734 -63.87109292 250.05292403 -66.27539062 250.04882812 C-72.18361504 250.03777499 -78.0918031 250.02101917 -84 250 C-82.43535295 241.98796543 -79.90449498 234.40108738 -77.265625 226.6875 C-76.79080655 225.28833431 -76.31639987 223.88902883 -75.84237671 222.48959351 C-74.57857169 218.76237752 -73.30899198 215.03715322 -72.03821564 211.31230927 C-70.71400696 207.4276109 -69.39517471 203.54108785 -68.07568359 199.65478516 C-65.27461799 191.40814972 -62.46611102 183.16406283 -59.65498352 174.92085266 C-58.70933601 172.14757749 -57.76435295 169.374076 -56.81933594 166.60058594 C-54.00849547 158.35302181 -51.1918595 150.10745547 -48.37109375 141.86328125 C-44.46122934 130.43490457 -40.57443616 118.99869096 -36.6875 107.5625 C-35.97135417 105.45572917 -35.25520833 103.34895833 -34.5390625 101.2421875 C-31.23997583 91.53617348 -27.94207111 81.82975843 -24.64517212 72.1230011 C-16.47406529 48.06665492 -8.27859999 24.01959998 0 0 Z M26 51 C14.0621118 89.48049149 14.0621118 89.48049149 2.28720093 128.01107788 C1.72126439 129.87694278 1.15439182 131.74252403 0.58657837 133.6078186 C-0.19646998 136.18169243 -0.97582245 138.75665297 -1.75390625 141.33203125 C-1.9843161 142.08774414 -2.21472595 142.84345703 -2.45211792 143.62207031 C-3.60047632 147.24675457 -3.60047632 147.24675457 -4 151 C18.11 151 40.22 151 63 151 C60.63703169 141.45027436 60.63703169 141.45027436 57.93457031 132.03588867 C57.55697571 130.80968307 57.1793811 129.58347748 56.79034424 128.32011414 C56.3863216 127.01938334 55.98224712 125.71866864 55.578125 124.41796875 C55.15048438 123.03299341 54.72314343 121.64792551 54.29608154 120.26277161 C53.17710734 116.6360243 52.05441263 113.01044007 50.93078613 109.38513184 C49.81121009 105.77105125 48.69467531 102.15603192 47.578125 98.54101562 C47.13806379 97.11630179 46.69800032 95.69158865 46.25793457 94.26687622 C46.04198135 93.56770206 45.82602814 92.86852791 45.60353088 92.14816666 C44.95766036 90.05764854 44.31133347 87.96727197 43.66491699 85.87692261 C40.07426733 74.2621148 36.52375904 62.63528386 33 51 C30.69 51 28.38 51 26 51 Z " fill="#f4e7d7" transform="translate(1711,547)"/>
<path d="M0 0 C26.73259703 24.27936185 37.24110828 58.36498052 39.32373047 93.54248047 C40.94701028 128.86449191 34.43437391 167.55710082 10.62451172 195.02685547 C9.86525391 195.85701172 9.10599609 196.68716797 8.32373047 197.54248047 C7.169375 198.81865234 7.169375 198.81865234 5.99169922 200.12060547 C-11.67827389 218.73259653 -37.05263218 229.98922162 -62.69604492 230.83195496 C-66.37733109 230.91186767 -70.05672197 230.92722342 -73.73876953 230.91748047 C-74.51184448 230.91693665 -75.28491943 230.91639282 -76.0814209 230.91583252 C-87.98180446 230.87735283 -99.28400178 230.29140104 -110.67626953 226.54248047 C-111.33385254 226.32817383 -111.99143555 226.11386719 -112.66894531 225.89306641 C-126.76475366 221.1168295 -139.09907745 214.0384657 -149.67626953 203.54248047 C-150.54251953 202.71748047 -151.40876953 201.89248047 -152.30126953 201.04248047 C-153.08501953 200.21748047 -153.86876953 199.39248047 -154.67626953 198.54248047 C-155.26794922 197.93404297 -155.85962891 197.32560547 -156.46923828 196.69873047 C-182.71490338 168.67627953 -188.03014571 128.78037935 -186.84033203 92.01513672 C-185.24836556 58.31851313 -174.34399857 25.427107 -149.67626953 1.54248047 C-109.26860467 -34.22558603 -41.0745356 -35.71438648 0 0 Z M-138.19384766 25.79394531 C-159.53927903 50.97114879 -163.89298395 86.66199725 -161.45361328 118.44335938 C-158.62927638 146.70164566 -148.61258129 172.54200592 -126.67626953 191.54248047 C-113.51959737 201.31928184 -97.16880724 207.8805726 -80.67626953 208.54248047 C-79.67853516 208.59404297 -78.68080078 208.64560547 -77.65283203 208.69873047 C-54.43213379 209.33636978 -32.51401585 202.51211976 -15.40429688 186.43212891 C6.85586673 164.52785932 14.01889314 133.80795997 14.51123047 103.47998047 C14.30165832 83.08861031 11.26976785 63.05244971 2.32373047 44.54248047 C1.88416016 43.62337891 1.44458984 42.70427734 0.99169922 41.75732422 C-2.67605624 34.57337344 -7.34655159 28.57148765 -12.67626953 22.54248047 C-13.21767578 21.90568359 -13.75908203 21.26888672 -14.31689453 20.61279297 C-28.08406439 5.52453105 -49.71071706 -1.62647976 -69.57861328 -2.66064453 C-96.74631631 -3.18966808 -119.73266716 5.26423679 -138.19384766 25.79394531 Z " fill="#f4e7d7" transform="translate(2895.67626953125,569.45751953125)"/>
<path d="M0 0 C127.25250318 0 127.25250318 0 148.3125 20.75 C162.29833906 35.17051589 167.62004485 52.71199717 168.25 72.5 C167.56018863 94.16819248 160.87951126 112.77128838 145 128 C137.30846197 134.30312941 126.23305479 142 116 142 C120.56809966 151.75443838 125.85267932 161.00201971 131.32080078 170.27539062 C135.83585152 177.95203981 140.20074708 185.70067838 144.5 193.5 C149.35197545 202.29381158 154.29462716 211.02353898 159.375 219.6875 C159.95137207 220.67129639 160.52774414 221.65509277 161.12158203 222.66870117 C161.67958496 223.62107666 162.23758789 224.57345215 162.8125 225.5546875 C165.68764999 230.46209279 168.55325561 235.37416137 171.375 240.3125 C171.75060059 240.95856201 172.12620117 241.60462402 172.51318359 242.27026367 C174.10639352 245.07820954 175 246.71280275 175 250 C165.76 250 156.52 250 147 250 C137.36125306 232.97154707 127.7799443 215.91206808 118.22949219 198.83398438 C111.77598217 187.29535078 105.31318219 175.76214053 98.8125 164.25 C98.00123657 162.81213135 98.00123657 162.81213135 97.17358398 161.34521484 C96.66899658 160.4527002 96.16440918 159.56018555 95.64453125 158.640625 C95.20471924 157.86235352 94.76490723 157.08408203 94.31176758 156.28222656 C93.35267017 154.61357914 92.35461445 152.96715604 91.3347168 151.33496094 C90 149 90 149 90 147 C68.55 147 47.1 147 25 147 C25 180.99 25 214.98 25 250 C16.75 250 8.5 250 0 250 C0 167.5 0 85 0 0 Z M25 22 C25 55.99 25 89.98 25 125 C42.0465625 125.12375 42.0465625 125.12375 59.4375 125.25 C62.98943115 125.28641602 66.5413623 125.32283203 70.20092773 125.36035156 C73.46185302 125.37375169 73.46185302 125.37375169 76.72279358 125.3817749 C78.14459789 125.38780765 79.56638542 125.40163909 80.98805237 125.42230225 C98.78288861 125.66738607 115.80767415 122.87798417 129.3125 110.375 C141.08805533 97.92548602 142.6165697 83.74950708 142.30859375 67.40625 C141.73788888 53.72827767 136.02387558 43.60455156 126.25 34.1875 C113.01531256 22.86914739 96.69075488 21.53009279 79.98046875 21.70703125 C78.56400916 21.71145657 77.14754461 21.71450816 75.7310791 21.71618652 C70.54980997 21.73174757 65.3686467 21.77363022 60.1875 21.8125 C42.7696875 21.9053125 42.7696875 21.9053125 25 22 Z " fill="#f4e7d7" transform="translate(3438,547)"/>
<path d="M0 0 C126.5088968 0 126.5088968 0 150 23 C150.55429688 23.51820313 151.10859375 24.03640625 151.6796875 24.5703125 C155.39559644 28.4067374 157.7575722 32.97972226 160.1875 37.6875 C160.52088379 38.32244385 160.85426758 38.9573877 161.19775391 39.61157227 C166.39301005 50.12104991 167.53453725 60.71081828 167.4375 72.3125 C167.42920166 73.59125 167.42090332 74.87 167.41235352 76.1875 C167.05210613 96.31007281 160.05508137 113.04487785 145.64453125 127.3359375 C138.50541704 133.66501606 130.51871265 137.4459075 121.84008789 141.18139648 C119.86106799 142.06180695 117.93073673 143.0187622 116 144 C116.35078613 144.59611084 116.70157227 145.19222168 117.06298828 145.80639648 C123.82319801 157.30882654 130.51238721 168.84127522 137 180.5 C142.12843911 189.71527603 147.38531149 198.84495606 152.72583008 207.9387207 C157.75561186 216.52644713 162.63215175 225.19590473 167.47070312 233.89257812 C168.02048828 234.88064453 168.57027344 235.86871094 169.13671875 236.88671875 C169.61842529 237.75514404 170.10013184 238.62356934 170.59643555 239.51831055 C171.5762502 241.25075374 172.60858584 242.95407357 173.67895508 244.63208008 C175 247 175 247 175 250 C165.76 250 156.52 250 147 250 C138.84502522 235.77851959 130.78123665 221.51037285 122.78662109 207.19824219 C114.1419215 191.7233085 105.47147385 176.26333445 96.7421875 160.8359375 C96.27393555 160.00674805 95.80568359 159.17755859 95.32324219 158.32324219 C94.47479968 156.83361508 93.61687985 155.34932283 92.74707031 153.87207031 C90 149.1989209 90 149.1989209 90 147 C68.22 147 46.44 147 24 147 C24 180.99 24 214.98 24 250 C16.08 250 8.16 250 0 250 C0 167.5 0 85 0 0 Z M24 22 C24 55.99 24 89.98 24 125 C41.1084375 125.0928125 41.1084375 125.0928125 58.5625 125.1875 C63.91770874 125.22846802 63.91770874 125.22846802 69.38110352 125.27026367 C72.64738799 125.28031136 72.64738799 125.28031136 75.91368103 125.28633118 C77.34221724 125.29086754 78.77074372 125.30126761 80.19920349 125.31672668 C97.86379767 125.49794626 115.27770062 123.34919589 128.9375 110.9375 C140.14662316 98.72457476 142.61568627 84.1332479 142.3125 68.21875 C141.76603372 55.55894792 136.46267909 43.32159789 127.08203125 34.65625 C112.81720512 23.30862096 97.00767094 21.36272947 79.46875 21.609375 C78.03548816 21.61528074 76.60221757 21.61934623 75.16894531 21.62158203 C69.9458291 21.64226875 64.72289943 21.69811081 59.5 21.75 C41.9275 21.87375 41.9275 21.87375 24 22 Z " fill="#f4e7d7" transform="translate(2487,547)"/>
<path d="M0 0 C6.27 0 12.54 0 19 0 C19.01981934 2.7136377 19.03963867 5.42727539 19.06005859 8.22314453 C19.1272656 17.2356966 19.2048989 26.24813779 19.28752708 35.26056099 C19.33726047 40.71941766 19.38359071 46.1782571 19.421875 51.63720703 C19.45902008 56.91522438 19.50545524 62.19308891 19.55806351 67.47097397 C19.57645348 69.47453987 19.59161681 71.47813833 19.60334396 73.4817543 C19.51862071 101.88343269 19.51862071 101.88343269 33 126 C42.05908561 134.59845414 53.5840484 137.14445372 65.73071289 137.16113281 C66.59974243 137.16609772 67.46877197 137.17106262 68.36413574 137.17617798 C71.23365072 137.19075761 74.10311034 137.19759619 76.97265625 137.203125 C78.97700501 137.20888186 80.98135376 137.21463952 82.98570251 137.22039795 C87.18960831 137.23089737 91.39349505 137.23674632 95.59741211 137.24023438 C100.95795483 137.24570328 106.31824153 137.26970149 111.67870426 137.29820633 C115.82167775 137.31692797 119.96459088 137.32204346 124.10760307 137.32357025 C126.08216176 137.3265781 128.05671987 137.3345427 130.03123665 137.34775543 C145.54730623 137.44413451 161.20605519 136.967443 173.3359375 125.9453125 C184.44944416 112.95346668 184.45850509 95.88939165 184.51171875 79.796875 C184.5285936 77.86345297 184.54674755 75.93004172 184.56611633 73.99664307 C184.61331792 68.94650646 184.64331939 63.89641359 184.66955566 58.84613037 C184.69951292 53.67728034 184.74599059 48.5085806 184.79101562 43.33984375 C184.87670875 33.22662448 184.94267415 23.11341989 185 13 C193.25 13 201.5 13 210 13 C210.06813827 24.06705281 210.12302347 35.13396326 210.15543652 46.2011795 C210.17100357 51.34171933 210.19207542 56.48210656 210.22631836 61.62255859 C210.25923482 66.59576387 210.27692012 71.5688236 210.28463173 76.54212952 C210.29011792 78.42686754 210.30082848 80.31159881 210.31719017 82.1962738 C210.4993853 104.08002052 207.87282845 125.52734089 192.25 142.1875 C174.87100302 158.7436278 151.30366679 158.31723649 128.84765625 158.30078125 C126.61673403 158.30467766 124.38581253 158.30901425 122.15489197 158.31376648 C117.49947698 158.32118911 112.84413789 158.32096591 108.1887207 158.31567383 C102.2603745 158.30987877 96.33234068 158.32683078 90.40404606 158.3500185 C85.80287397 158.36483781 81.20177576 158.36561653 76.60058403 158.36250877 C74.41639016 158.36301768 72.23219168 158.36817323 70.04802132 158.37832069 C51.12768958 158.45546617 32.03755278 157.98841037 17 145 C16.41605469 144.51015625 15.83210938 144.0203125 15.23046875 143.515625 C10.32809527 139.04483745 7.12795873 133.65778575 3.796875 127.98828125 C2.31407855 125.52232629 0.77850323 123.25606428 -1 121 C-1.48726562 121.4846875 -1.97453125 121.969375 -2.4765625 122.46875 C-20.97040479 139.95383726 -42.05995514 142.82835794 -66.640625 142.17041016 C-83.85171161 141.29734777 -99.11923656 133.2282812 -111 121 C-111.63292969 120.38769531 -112.26585937 119.77539062 -112.91796875 119.14453125 C-125.55336198 106.06285482 -129.23077013 87.60034357 -129 70 C-127.79150881 51.74045343 -121.18750397 36.70909295 -108 24 C-101.00508913 18.0028617 -93.70241237 13.98127026 -85 11 C-84.28714844 10.75378906 -83.57429688 10.50757813 -82.83984375 10.25390625 C-67.43146554 5.9490607 -49.41563642 9.91103023 -33.95654297 11.93579102 C-30.08562409 12.44265595 -26.21301519 12.93450072 -22.33984375 13.42382812 C-19.87489103 13.73873156 -17.41004304 14.05445606 -14.9453125 14.37109375 C-13.78919464 14.51904892 -12.63307678 14.66700409 -11.44192505 14.81944275 C-9.84282791 15.02954735 -9.84282791 15.02954735 -8.21142578 15.24389648 C-6.80608078 15.42709694 -6.80608078 15.42709694 -5.37234497 15.61399841 C-3 16 -3 16 0 17 C0 11.39 0 5.78 0 0 Z M-100 48 C-107.40949027 58.61913122 -110.54955788 69.04606037 -108.5390625 81.9609375 C-105.73902703 94.77521748 -99.32821186 103.65394261 -88.31640625 110.72265625 C-71.89379466 119.79185966 -52.16419717 119.77813899 -34.3828125 115.03515625 C-21.29816418 110.78336134 -12.01664178 103.91505208 -5 92 C-1.18325555 84.18898811 0.1564806 77.31741384 0.09765625 68.63671875 C0.0962413 67.84473587 0.09482635 67.05275299 0.09336853 66.23677063 C0.08779457 63.72030781 0.07524693 61.20393569 0.0625 58.6875 C0.05748163 56.97591275 0.05291931 55.26432409 0.04882812 53.55273438 C0.03783368 49.36845492 0.02058707 45.18424281 0 41 C-7.51954602 39.98749516 -15.0412864 38.99264854 -22.56469727 38.00927734 C-25.11664996 37.67369307 -27.66810088 37.33426732 -30.21899414 36.99072266 C-67.85540608 30.98689978 -67.85540608 30.98689978 -100 48 Z " fill="#f4e7d7" transform="translate(1524,191)"/>
<path d="M0 0 C1.07894531 0.95132813 1.07894531 0.95132813 2.1796875 1.921875 C3.00210938 2.63859375 3.82453125 3.3553125 4.671875 4.09375 C18.30422323 16.77307693 23.35361947 31.66119471 25.1796875 49.921875 C16.9296875 49.921875 8.6796875 49.921875 0.1796875 49.921875 C-0.6246875 46.51875 -0.6246875 46.51875 -1.4453125 43.046875 C-4.84269638 29.85812239 -11.89368149 20.37906302 -23.5078125 13.171875 C-40.67479286 3.62982246 -63.23450875 1.78692323 -82.1953125 6.546875 C-84.42538351 7.27506145 -86.63701352 8.06357565 -88.8203125 8.921875 C-90.39425781 9.540625 -90.39425781 9.540625 -92 10.171875 C-104.50703229 15.7729887 -112.75737036 24.22587122 -117.8203125 36.921875 C-120.61256356 45.29862818 -119.93542039 56.94340177 -116.06640625 64.85546875 C-103.89618499 85.03743441 -75.42956622 89.65981952 -54.3828125 94.921875 C3.66071721 109.45607541 3.66071721 109.45607541 20.1796875 131.921875 C29.84549146 148.16728388 30.96371493 165.65211758 27.1796875 183.921875 C21.66901234 202.6710862 9.85470422 216.39880957 -6.98046875 225.93310547 C-12.40791686 228.84992671 -17.96803518 231.05782694 -23.8203125 232.921875 C-24.45839844 233.13215332 -25.09648437 233.34243164 -25.75390625 233.55908203 C-51.31700739 241.55071489 -85.89504412 239.79769762 -109.8203125 227.921875 C-111.19896484 227.26058594 -111.19896484 227.26058594 -112.60546875 226.5859375 C-129.49080123 217.98890465 -142.62307635 203.98112296 -149.1328125 186.109375 C-151.28716744 179.14701762 -152.01744693 172.14766517 -152.8203125 164.921875 C-144.5703125 164.921875 -136.3203125 164.921875 -127.8203125 164.921875 C-127.2634375 167.21125 -126.7065625 169.500625 -126.1328125 171.859375 C-122.41369258 186.09051398 -114.52278836 196.8309565 -101.69140625 204.39453125 C-81.61109593 215.07670994 -56.49510755 217.82409895 -34.5390625 211.3203125 C-19.54899447 205.68329112 -8.1112007 199.12299256 -0.59375 184.54296875 C4.10501277 174.01300757 4.12713853 163.69695429 0.1796875 152.921875 C-5.19588037 140.12200884 -16.37454101 134.188496 -28.53865051 129.05545044 C-39.84458358 124.48416449 -51.69918405 121.74014941 -63.5078125 118.796875 C-124.48449968 103.48156303 -124.48449968 103.48156303 -139.8203125 77.921875 C-147.58324851 62.88263479 -147.77547683 44.87075518 -142.8203125 28.921875 C-135.90616352 10.91750985 -121.95782806 -2.27146178 -104.6484375 -10.4765625 C-72.04220968 -24.583402 -28.1388759 -23.29445404 0 0 Z " fill="#f4e7d7" transform="translate(4352.8203125,563.078125)"/>
<path d="M0 0 C49.5 0 99 0 150 0 C150 7.26 150 14.52 150 22 C108.42 22 66.84 22 24 22 C24 51.37 24 80.74 24 111 C63.6 111 103.2 111 144 111 C144 118.26 144 125.52 144 133 C104.4 133 64.8 133 24 133 C24 164.02 24 195.04 24 227 C65.58 227 107.16 227 150 227 C150 234.59 150 242.18 150 250 C100.5 250 51 250 0 250 C0 167.5 0 85 0 0 Z " fill="#f4e7d7" transform="translate(3993,547)"/>
<path d="M0 0 C49.5 0 99 0 150 0 C150 7.26 150 14.52 150 22 C108.42 22 66.84 22 24 22 C24 51.37 24 80.74 24 111 C63.6 111 103.2 111 144 111 C144 118.26 144 125.52 144 133 C104.4 133 64.8 133 24 133 C24 164.02 24 195.04 24 227 C65.58 227 107.16 227 150 227 C150 234.59 150 242.18 150 250 C100.5 250 51 250 0 250 C0 167.5 0 85 0 0 Z " fill="#f4e7d7" transform="translate(3222,547)"/>
<path d="M0 0 C110.5015871 0 110.5015871 0 124.5 7.75 C125.15105713 8.09434082 125.80211426 8.43868164 126.47290039 8.79345703 C143.21801095 17.9271537 155.67278188 32.81418061 161.4375 51 C167.82599014 73.45998328 165.5364119 98.76390454 154.34375 119.2265625 C150.76964314 125.28097628 146.04665157 130.15917863 141 135 C140.39414063 135.60199219 139.78828125 136.20398438 139.1640625 136.82421875 C121.9526284 152.81825873 98.90007473 155.36096381 76.5390625 155.1953125 C75.18318854 155.19236074 73.82731226 155.19032731 72.47143555 155.18920898 C67.52258825 155.17885282 62.57379019 155.15093152 57.625 155.125 C46.52875 155.08375 35.4325 155.0425 24 155 C24 186.35 24 217.7 24 250 C16.08 250 8.16 250 0 250 C0 167.5 0 85 0 0 Z M24 22 C24 58.63 24 95.26 24 133 C39.3759375 133.0928125 39.3759375 133.0928125 55.0625 133.1875 C59.86953491 133.22846802 59.86953491 133.22846802 64.77368164 133.27026367 C67.36083603 133.27903905 69.94799462 133.28668048 72.53515625 133.29296875 C74.4928595 133.3159906 74.4928595 133.3159906 76.4901123 133.33947754 C94.42990311 133.34449005 111.68383231 129.78444571 125 117 C135.45060262 105.87582338 139.39842566 92.72070504 139.3125 77.75 C139.30686035 76.72874023 139.3012207 75.70748047 139.29541016 74.65527344 C139.06178484 60.15199886 135.41824344 48.36655002 125.25 37.6875 C113.8514809 26.96847533 99.80173402 21.85697786 84.16845703 21.88647461 C83.17119756 21.88629381 83.17119756 21.88629381 82.15379143 21.88610935 C80.02176329 21.88685014 77.88982481 21.89443996 75.7578125 21.90234375 C74.44675537 21.90335083 73.13569824 21.90435791 71.78491211 21.90539551 C66.89826581 21.9106184 62.01163201 21.92457966 57.125 21.9375 C46.19375 21.958125 35.2625 21.97875 24 22 Z " fill="#f4e7d7" transform="translate(2263,547)"/>
<path d="M0 0 C115.56370656 0 115.56370656 0 137 16 C138.09441406 16.81597656 138.09441406 16.81597656 139.2109375 17.6484375 C153.3788958 29.12840371 161.76281837 46.84117495 163.80517578 64.75878906 C165.79769602 87.68026246 162.19511756 109.48079522 147.6640625 127.97265625 C134.43740023 143.66905821 115.88637061 152.32576672 95.64689636 154.79104614 C89.49103505 155.27700811 83.2965644 155.12001886 77.125 155.09765625 C75.76302125 155.09618335 74.40104193 155.09516478 73.0390625 155.09460449 C68.02603295 155.08939198 63.01301558 155.07543076 58 155.0625 C46.78 155.041875 35.56 155.02125 24 155 C24 186.35 24 217.7 24 250 C16.08 250 8.16 250 0 250 C0 167.5 0 85 0 0 Z M24 22 C24 58.63 24 95.26 24 133 C34.065 133.061875 44.13 133.12375 54.5 133.1875 C57.64337891 133.21481201 60.78675781 133.24212402 64.02539062 133.27026367 C88.43184181 133.81510153 88.43184181 133.81510153 111.375 126.4375 C112.03218018 126.09525391 112.68936035 125.75300781 113.36645508 125.40039062 C125.85241755 118.54667463 132.92029988 108.16431923 137.203125 94.9296875 C141.32185522 79.78729697 139.92469532 62.20121991 132.8125 48.125 C123.7086349 33.72882779 111.62595563 26.6696133 95.41664124 22.85421753 C88.57562891 21.40690427 81.74174242 21.50218565 74.78125 21.609375 C72.82977051 21.61541748 72.82977051 21.61541748 70.83886719 21.62158203 C66.05909774 21.64223742 61.27953207 21.69807853 56.5 21.75 C45.775 21.8325 35.05 21.915 24 22 Z " fill="#f4e7d7" transform="translate(2998,547)"/>
<path d="M0 0 C14.85 0 29.7 0 45 0 C45.04530428 19.11631585 45.08208029 38.23258763 45.10362434 57.34894371 C45.1138975 66.22678944 45.12788122 75.10459923 45.15087891 83.98242188 C45.17093499 91.72844711 45.18374514 99.47444629 45.18817699 107.22049677 C45.19076388 111.3145862 45.19675954 115.40860114 45.21146011 119.50266647 C45.43099913 183.19597054 45.43099913 183.19597054 23.55078125 205.640625 C11.73304346 216.57158002 -3.32916805 222.90653707 -19 226 C-20.32439087 226.26925293 -20.32439087 226.26925293 -21.67553711 226.54394531 C-31.57262873 228.32415023 -41.29839503 228.22555484 -51.3125 228.125 C-60.0678125 228.063125 -60.0678125 228.063125 -69 228 C-69 214.14 -69 200.28 -69 186 C-49.625 185.6875 -49.625 185.6875 -43.57275391 185.61206055 C-31.11705269 185.39287751 -19.68934745 184.779811 -10 176 C-1.13839678 165.14550348 -0.55127929 151.93937465 -0.56762695 138.50097656 C-0.55858951 136.98197646 -0.5482575 135.46298359 -0.53674316 133.94400024 C-0.50937941 129.85804451 -0.499917 125.77222792 -0.49388909 121.68619251 C-0.48445119 117.40204769 -0.45824381 113.11800462 -0.43388367 108.83392334 C-0.39036303 100.73825323 -0.3617277 92.64260303 -0.33856028 84.54685187 C-0.31143083 75.32298991 -0.26752437 66.09923105 -0.22227156 56.87544298 C-0.12963219 37.9170031 -0.0600711 18.95857298 0 0 Z " fill="#f4e7d7" transform="translate(4337,199)"/>
<path d="M0 0 C14.52 0 29.04 0 44 0 C44 82.5 44 165 44 250 C29.48 250 14.96 250 0 250 C0 167.5 0 85 0 0 Z " fill="#f4e7d7" transform="translate(4213,99)"/>
<path d="M0 0 C14.52 0 29.04 0 44 0 C44 82.5 44 165 44 250 C29.48 250 14.96 250 0 250 C0 167.5 0 85 0 0 Z " fill="#f4e7d7" transform="translate(3573,99)"/>
<path d="M0 0 C61.71 0 123.42 0 187 0 C187 7.26 187 14.52 187 22 C160.27 22 133.54 22 106 22 C106 97.24 106 172.48 106 250 C97.75 250 89.5 250 81 250 C81 174.76 81 99.52 81 22 C54.27 22 27.54 22 0 22 C0 14.74 0 7.48 0 0 Z " fill="#f4e7d7" transform="translate(3654,547)"/>
<path d="M0 0 C7.92 0 15.84 0 24 0 C24.09290873 20.94164959 24.16413779 41.88324891 24.20724869 62.82506371 C24.22780489 72.55043972 24.25579144 82.2756847 24.30175781 92.00097656 C24.34183953 100.48533048 24.36748315 108.96958942 24.37635398 117.4540354 C24.38153291 121.9394512 24.39355735 126.42459547 24.42292023 130.90992355 C24.45042807 135.14692384 24.45837508 139.38354533 24.45243073 143.62062645 C24.4535154 145.16114181 24.461256 146.7016722 24.4768219 148.2421093 C24.61003547 162.12712687 23.0867444 177.08397128 16.375 189.5 C16.03436523 190.14960693 15.69373047 190.79921387 15.34277344 191.46850586 C8.42583853 203.9965007 -2.9555953 211.86110573 -16.375 216.3125 C-29.02121696 219.72681024 -41.38230334 220.27647667 -54.375 220.125 C-55.90103569 220.11493466 -57.42707792 220.10581518 -58.953125 220.09765625 C-62.63571824 220.07768557 -66.31737141 220.03849438 -70 220 C-70 211.75 -70 203.5 -70 195 C-65.50052734 194.94392578 -65.50052734 194.94392578 -60.91015625 194.88671875 C-57.98096739 194.84040885 -55.05190154 194.78920967 -52.12280273 194.73754883 C-50.09879126 194.70444772 -48.07469076 194.67637043 -46.05053711 194.65356445 C-43.12836027 194.61974463 -40.20698842 194.56741659 -37.28515625 194.51171875 C-35.94397484 194.50213387 -35.94397484 194.50213387 -34.57569885 194.49235535 C-26.4163586 194.30460259 -18.73850813 192.72150996 -12.62890625 186.98046875 C-0.27150317 171.95600026 -0.87247086 151.27578584 -0.79467773 132.93823242 C-0.78507069 131.47820273 -0.77505909 130.01817565 -0.76467896 128.55815125 C-0.73792943 124.63757545 -0.71676013 120.71698798 -0.69667697 116.79637313 C-0.67462988 112.68310089 -0.64733386 108.56986337 -0.62062073 104.45661926 C-0.5709445 96.68680808 -0.52591397 88.91697737 -0.48259836 81.1471284 C-0.43301004 72.29328441 -0.37817284 63.43947528 -0.32291877 54.58566511 C-0.2094842 36.39047568 -0.10274926 18.1952527 0 0 Z " fill="#f4e7d7" transform="translate(1813,204)"/>
<path d="M0 0 C7.92 0 15.84 0 24 0 C24.17324993 22.91662037 24.33962926 45.83328596 24.5 68.75 C24.50594854 69.59885049 24.51189708 70.44770098 24.51802588 71.32227421 C24.84008357 117.34010221 25.09968722 163.35582137 25.0625 209.375 C25.06164398 210.442379 25.06078796 211.509758 25.05990601 212.60948181 C25.04911584 225.07301136 25.02908896 237.53650025 25 250 C16.75 250 8.5 250 0 250 C0 167.5 0 85 0 0 Z " fill="#f4e7d7" transform="translate(2465,99)"/>
<path d="M0 0 C7.92 0 15.84 0 24 0 C24 82.5 24 165 24 250 C16.08 250 8.16 250 0 250 C0 167.5 0 85 0 0 Z " fill="#f4e7d7" transform="translate(3897,547)"/>
<path d="M0 0 C0.94681641 -0.00773438 1.89363281 -0.01546875 2.86914062 -0.0234375 C3.80564453 -0.02085938 4.74214844 -0.01828125 5.70703125 -0.015625 C6.96157104 -0.01224121 6.96157104 -0.01224121 8.24145508 -0.00878906 C12.27848222 0.34583502 16.23143086 1.37087353 20.1875 2.25 C20.1875 10.5 20.1875 18.75 20.1875 27.25 C14.2475 26.26 14.2475 26.26 8.1875 25.25 C0.31426701 24.62930941 0.31426701 24.62930941 -6.8125 27.25 C-8.70136253 29.76848338 -8.81965839 31.07819868 -8.6875 34.25 C-7.66990382 37.73890119 -6.66237467 39.03343081 -3.8125 41.25 C-0.00795431 43.07832418 3.16125777 43.53986476 7.36328125 43.6640625 C8.52021484 43.70273437 9.67714844 43.74140625 10.86914062 43.78125 C12.06732422 43.8121875 13.26550781 43.843125 14.5 43.875 C15.71751953 43.91367187 16.93503906 43.95234375 18.18945312 43.9921875 C21.18855742 44.08627705 24.18800771 44.16921991 27.1875 44.25 C27.1875 52.17 27.1875 60.09 27.1875 68.25 C4.0875 68.25 -19.0125 68.25 -42.8125 68.25 C-42.8125 60.33 -42.8125 52.41 -42.8125 44.25 C-40.1725 43.92 -37.5325 43.59 -34.8125 43.25 C-34.91949219 42.13882813 -35.02648438 41.02765625 -35.13671875 39.8828125 C-36.10011539 28.60002889 -36.16991907 19.29286788 -28.68359375 10.0703125 C-20.42444036 2.0353115 -11.11886222 -0.08972855 0 0 Z " fill="#f4e7d7" transform="translate(4243.8125,-0.25)"/>
<path d="M0 0 C5.27642533 3.92422314 8.85108942 8.94055603 10.125 15.4375 C10.61021084 22.71566254 9.34452331 28.06994739 5.3125 34.1875 C-0.10214947 39.75685374 -4.94536486 41.59353993 -12.5625 41.75 C-19.74809122 41.67599803 -24.32641908 40.72351776 -29.6171875 35.82421875 C-34.92391487 30.09853922 -36.31733465 24.60173792 -36.12109375 16.890625 C-35.44407788 10.14195885 -31.69940557 4.95745279 -26.875 0.4375 C-18.56412758 -4.65078924 -8.42384807 -5.18390651 0 0 Z " fill="#f4e7d7" transform="translate(3192.875,371.5625)"/>
<path d="M0 0 C5.41027483 4.04029108 8.80691318 9.71597947 9.8203125 16.359375 C10.08708163 23.37006761 8.95451789 28.77387405 4.6640625 34.41015625 C-0.60927967 39.98515146 -5.60825326 41.66060666 -13.2421875 41.921875 C-20.15717934 41.6390228 -24.86839445 40.49248188 -29.921875 35.7109375 C-35.40291837 29.70539238 -36.65643658 24.42484541 -36.48828125 16.36328125 C-35.86468166 10.29305235 -33.36813577 6.20911417 -28.9921875 2.046875 C-20.30343509 -4.71925986 -9.62843335 -5.37944859 0 0 Z " fill="#f4e7d7" transform="translate(3134.1796875,371.640625)"/>
<path d="M0 0 C4.60214839 3.49988558 7.42455475 8.269758 9.234375 13.69921875 C9.89620519 21.0227495 9.9958333 27.75734321 5.234375 33.69921875 C-1.25652077 39.77003567 -7.19437174 42.14722318 -16.0546875 41.9453125 C-22.97129412 41.31743611 -28.11818016 37.61154386 -32.765625 32.69921875 C-36.23188103 27.49983471 -37.23503537 21.72587954 -36.515625 15.5546875 C-34.91926456 8.10025438 -30.92764511 3.13587323 -24.765625 -1.30078125 C-16.71881864 -5.23061691 -7.65972372 -4.25675729 0 0 Z " fill="#f4e7d7" transform="translate(2789.765625,102.30078125)"/>
<path d="M0 0 C5.0529034 4.2490324 9.48895474 9.61231138 10.2734375 16.34765625 C10.5439387 23.57836144 9.44411593 29.15624297 5 35 C-1.60557733 40.69167083 -7.30372791 42.3838512 -15.9296875 42.26953125 C-22.4352587 41.69843149 -26.42754117 38.88923837 -30.875 34.25 C-35.30284821 28.77079058 -36.26680923 23.94736249 -35.9375 17 C-35.06561375 10.40002382 -31.9611976 5.54671915 -27.0625 1.125 C-18.97251629 -4.48845809 -8.63192366 -4.8276978 0 0 Z " fill="#f4e7d7" transform="translate(3302,102)"/>
<path d="M0 0 C5.0529034 4.2490324 9.48895474 9.61231138 10.2734375 16.34765625 C10.5439387 23.57836144 9.44411593 29.15624297 5 35 C-1.60557733 40.69167083 -7.30372791 42.3838512 -15.9296875 42.26953125 C-22.4352587 41.69843149 -26.42754117 38.88923837 -30.875 34.25 C-35.30284821 28.77079058 -36.26680923 23.94736249 -35.9375 17 C-35.06561375 10.40002382 -31.9611976 5.54671915 -27.0625 1.125 C-18.97251629 -4.48845809 -8.63192366 -4.8276978 0 0 Z " fill="#f4e7d7" transform="translate(2730,102)"/>
<path d="M0 0 C3.18952101 3.47094933 4.93014206 6.75215735 5.29296875 11.51953125 C5.04726534 16.86130531 3.44935374 20.12144699 -0.26953125 23.9375 C-3.50584572 26.70923405 -6.0591459 27.23695795 -10.25 27.625 C-15.71184562 27.15415124 -19.48922067 25.80768296 -23.25 21.75 C-26.58524064 16.74713904 -26.5684745 12.22742956 -25.875 6.3125 C-24.45527529 2.45500407 -22.40664316 0.19238011 -18.85546875 -1.84765625 C-12.03871303 -4.60539806 -6.25246763 -3.66992665 0 0 Z " fill="#f4e7d7" transform="translate(2097.875,122.6875)"/>
<path d="M0 0 C3.34142881 2.79123371 6.68424157 6.45840348 7.23828125 10.91796875 C7.42089799 16.50219642 6.89971963 20.78349642 3 25 C-1.6827849 28.43336507 -6.18455684 29.83077759 -12 29 C-16.42491824 27.59169269 -19.90633249 25.75340823 -22.5 21.8125 C-24.50984749 17.63129941 -24.82067279 13.54271403 -24 9 C-21.7717012 4.62593199 -19.09652843 1.69771384 -15 -1 C-9.72423539 -2.42848776 -5.08776738 -1.95058174 0 0 Z " fill="#f4e7d7" transform="translate(2048,121)"/>
<path d="M0 0 C4.85857844 2.29678253 7.63468979 5.17840611 10 10 C10.95570036 15.3441204 10.34533192 19.94408137 7.3203125 24.4921875 C4.37154782 27.85971166 1.20414835 29.62158869 -3.20703125 30.37890625 C-8.63477555 30.66555033 -12.87412796 29.62349902 -17 26 C-19.87797797 22.63668255 -21.23442749 19.36278847 -21.4375 14.9375 C-20.83117953 9.48061581 -19.52682279 6.37786447 -15.4375 2.6875 C-10.47650237 -0.74703682 -5.9197618 -0.5944881 0 0 Z " fill="#f4e7d7" transform="translate(1720,394)"/>
<path d="M0 0 C3.9481282 3.12560149 6.57037266 6.30013134 7.37109375 11.33203125 C7.5154265 16.72328381 7.07579161 20.38359678 3.55078125 24.59375 C-0.07423519 27.88091856 -3.79682332 28.87334982 -8.5625 29.375 C-13.89847912 28.79289319 -17.32100068 27.02172701 -20.8125 23 C-24.04569951 18.56589781 -24.36681699 15.41055056 -24 10 C-21.82794492 4.46125954 -19.36410929 1.04020809 -13.875 -1.375 C-8.853207 -2.18496661 -4.78385683 -1.7270534 0 0 Z " fill="#f4e7d7" transform="translate(1467,121)"/>
<path d="M0 0 C3.46751337 2.83389145 5.58728425 5.76185274 7 10 C7.39680449 15.25765945 6.89498146 18.56102842 4 23 C0.32080238 26.72945989 -2.88679647 28.79282318 -8.1875 29.3125 C-13.44905539 28.88122497 -17.73538237 27.44857817 -21.39453125 23.4921875 C-24.39205488 18.9376463 -24.81393085 14.32572037 -24 9 C-22.13951042 4.45213658 -18.94885742 1.84317734 -15 -1 C-9.75266832 -2.47715393 -5.06542893 -1.93392574 0 0 Z " fill="#f4e7d7" transform="translate(1515,121)"/>
<path d="M0 0 C4.45498552 2.1102563 7.22604963 4.36801849 9 9 C9.66541913 14.37264334 9.69575726 18.60848549 7.25 23.5 C3.21243575 27.9861825 0.32577356 29.84749026 -5.8125 30.25 C-11.44745645 30.14679567 -14.75130653 28.19319599 -18.8125 24.3125 C-21.39965445 20.39480898 -22.29695695 17.66397092 -22 13 C-21.07797661 8.55164152 -19.74829034 5.71178837 -16.4375 2.5625 C-11.16187701 -0.81930961 -6.16401724 -0.5801428 0 0 Z " fill="#f4e7d7" transform="translate(1673,394)"/>
</svg>
